<svg xmlns="http://www.w3.org/2000/svg" viewBox="0 0 199.18 70.68"><defs><style>.cls-1{fill:#231f20;}</style></defs><g id="Layer_2" data-name="Layer 2"><g id="Layer_1-2" data-name="Layer 1"><path d="M84.26,11.17a6.25,6.25,0,0,0-1.93.61c-.21.14.25,2.65.63,2.31.2-.18,1.21-.82,1.75-1.29A2.11,2.11,0,0,0,84.26,11.17Z"></path><path d="M103.76,4.65c-1.05-.58-6-1.29-8-1.06-5.55.76-9.11,6.06-10,7a4.55,4.55,0,0,1-1.78,1l-.19,1.08a13.09,13.09,0,0,1,4.64.7c1.51.46,2.58,1,4.2,1.41,4.43,1.17,6.83-.3,7.59-.75C104.46,11.42,107.79,6.85,103.76,4.65Zm-.68,5.25c-1.35.13-3.9.18-6.51.4-1.57.13-3.42.42-4.67.63a7.45,7.45,0,0,1-2.38,0s1.42-.69,3.41-1.87c2.85-1.68,5.46-3.56,7.72-4.37C102.57,5.21,103.48,8.28,103.08,9.9Z"></path><path d="M83,13.44a33.92,33.92,0,0,0,4.91,3.35c2.9,1.63,6,2.83,9.62,5,3.05,1.83,5.68,3.07,5.68,3.07l-.66-4.07s-1.83-1.1-3.84-2.28c-3.21-1.88-7.16-4.33-10-5.14a37.69,37.69,0,0,0-5.29-1.2A1.8,1.8,0,0,0,83,13.44Z"></path><path d="M82.77,12A70.7,70.7,0,0,1,72.9,6.22C68.84,3.35,65.2,3.14,63.27,4c-4.41,2-5.29,7.6-.59,9.11a19.31,19.31,0,0,0,8.91.64A85.54,85.54,0,0,1,83,13.25ZM70.4,10.69c-2.38.22-5.13,1.23-6.5,1.31s-4.54-.21-3.61-4.11c1-4.21,6.17-4.34,9.92-2.64,1.39.63,5,4.59,6.44,5.37A36.52,36.52,0,0,0,70.4,10.69Z"></path><path d="M59.53,22.38a26.57,26.57,0,0,0-2.25,3.77,25.65,25.65,0,0,1,12.66-7c6.27-1.4,8.5-2.51,11.31-4.7,1.71-1.33,2.17-1.18,2.17-1.18l-.62-1.17a21,21,0,0,0-9,1.88C69.41,16,62.79,19.73,59.53,22.38Z"></path><path class="cls-1" d="M92.36,63.64c0,.1-.15.19-.24.28s-.2,0-.3-.11a3.21,3.21,0,0,1-.55-.66A3.85,3.85,0,0,0,89,61.37a14.31,14.31,0,0,0-3.81-.71,12.53,12.53,0,0,0-1.34-.16,28,28,0,0,0-3.57-.2l-5.5-.23c-.75,0-1.49,0-2.19,0-1.58,0-3.12,0-4.71,0-.49,0-1,0-1.53,0-2,.07-3.92.13-5.9.15-1,0-2.08,0-3.17.06l-5.41.21c-2,0-4,.08-5.9.19-1.63.08-3.22.11-4.81.2-1.28,0-2.52.13-3.81.18-1.49.13-3,.17-4.51.2-1.19.1-2.33.2-3.52.25s-2.38.09-3.62.14c-.94,0-1.84.07-2.78.08a20.33,20.33,0,0,1-2.33,0c-1.09,0-2.23,0-3.27-.09a26.23,26.23,0,0,1-2.78-.22,18.4,18.4,0,0,1-5.6-1.38,20.79,20.79,0,0,1-4.26-2.46,8.81,8.81,0,0,1-1.93-2.16,9.59,9.59,0,0,1-1-1.67A26.07,26.07,0,0,1,.7,51c-.24-1-.34-2-.49-3a15.89,15.89,0,0,0-.15-1.59c0-.29.05-.64.05-.89a18.92,18.92,0,0,1,.25-3.75,21.59,21.59,0,0,1,.44-3L1,37.61a1.14,1.14,0,0,1,.1-.44,2,2,0,0,0,.1-.49c.25-1.13.55-2.15.84-3.23a29,29,0,0,0,.9-2.78c.19-.44.34-.83.49-1.27.35-.82.74-1.65,1-2.52.2-.49.45-1,.65-1.46s.49-1,.79-1.5a.56.56,0,0,1,.35-.43.17.17,0,0,0,.1,0c-.2-.25,0-.49.09-.69a2.37,2.37,0,0,0,.4-.67c.3-.63.69-1.21.94-1.79.7-1.11,1.34-2.22,2.08-3.28a16.5,16.5,0,0,0,1.34-1.87c.05-.1.25-.19.35-.33.05.15-.2.24.05.4a1.1,1.1,0,0,0-.05-.4,1.92,1.92,0,0,1,.64-.91c0-.05.2,0,.3,0l-.1-.25a.18.18,0,0,1,.05-.15c.85-1,1.69-2,2.48-3l1.19-1.34c.7-.66,1.39-1.27,2.08-1.94a39.89,39.89,0,0,1,3.18-2.58c.49-.38,1-.65,1.48-1a4.1,4.1,0,0,0,.8-.56c.84-.46,1.73-.91,2.62-1.32a17.82,17.82,0,0,1,3-1.11A13.21,13.21,0,0,1,33.42,0,9.34,9.34,0,0,1,36.3.38,11.36,11.36,0,0,1,39,1.44,13.2,13.2,0,0,1,42.3,4.05,11.68,11.68,0,0,1,44.08,6.3a10.44,10.44,0,0,1,1.24,2.93,10.91,10.91,0,0,1,.4,4,7.81,7.81,0,0,1-.4,2.41,14.61,14.61,0,0,0-.55,1.76,2,2,0,0,1-.34.48.85.85,0,0,1-.2-.31,2.36,2.36,0,0,1-.3-.75c0-.2.3-.39,0-.64a4.18,4.18,0,0,1,.2-.64v-.34s.1.05.15.05a2.1,2.1,0,0,0,0-.79,5.14,5.14,0,0,1,0-1.24A11.47,11.47,0,0,0,44,9.07a8.47,8.47,0,0,0-1.24-3,7.17,7.17,0,0,0-2.68-2.59,9.35,9.35,0,0,0-4.51-1.53A9.79,9.79,0,0,0,33.12,2a7.71,7.71,0,0,0-1.68.32l-.55.13c-1.29.39-2.52.93-3.76,1.42a3.19,3.19,0,0,0-.75.41,28,28,0,0,0-2.53,1.58c-.59.42-1.09.79-1.63,1.11a9.91,9.91,0,0,1-.79.71,30.41,30.41,0,0,0-2.38,2.18,4.28,4.28,0,0,0-.7.71c-.54.52-1.09,1.14-1.58,1.71-.4.38-.75.81-1.15,1.24,0,.05-.09,0-.14.09a2.17,2.17,0,0,0-.3,0v.1a1.71,1.71,0,0,0,.3-.14c-.05.1-.05.25-.2.34-.25.39-.6.77-.89,1.15-.45.57-.85,1.1-1.19,1.63A26,26,0,0,0,11.06,20c-.24.34-.39.68-.64,1a1.77,1.77,0,0,1-.3.43H10c.1.26,0,.4-.2.54a3,3,0,0,1-.29.63C8.83,23.7,8.39,24.87,7.74,26A15,15,0,0,0,7,27.73a3.26,3.26,0,0,1-.6,1,.73.73,0,0,1,.25-.68A6.55,6.55,0,0,0,7,27.13a1.94,1.94,0,0,0,.49-1.21A2.55,2.55,0,0,0,7,27.13a1.15,1.15,0,0,0-.35.48c-.25.49-.44.93-.64,1.36,0,.2-.15.39-.1.54H6s-.15.1-.15.15c-.15.29-.3.63-.4.87a31.57,31.57,0,0,0-1,3.22c-.44,1.42-.84,2.83-1.24,4.35-.29,1.28-.49,2.55-.69,3.78A42.9,42.9,0,0,0,2.24,47a14.91,14.91,0,0,0,.1,1.49s0,.2.1.25.15-.19.15-.29a17.57,17.57,0,0,1-.15-2.28s0-.15,0-.2c.05-.89.15-1.77.2-2.66,0-.1,0-.15,0-.25a6.53,6.53,0,0,1,0,1,31.44,31.44,0,0,0,0,3.76,11.2,11.2,0,0,0,.1,1.29,14.72,14.72,0,0,0,.69,3.25,9.77,9.77,0,0,0,1,2.27,9.84,9.84,0,0,0,.65,1.06,8.43,8.43,0,0,0,1,1.24c.29.3.64.57.94.83a8.67,8.67,0,0,0,3.77,1.69,18.51,18.51,0,0,0,2.92.37,27.78,27.78,0,0,0,4.07.23c1.68,0,3.37,0,4.95-.09,1.24,0,2.48,0,3.72,0a12.18,12.18,0,0,0,1.34-.14c1.68,0,3.32-.15,5-.23,1.53,0,3-.12,4.51-.15.84-.06,1.68-.08,2.53-.09s1.78-.07,2.67-.09c1.29-.09,2.63-.13,3.92-.17,1.83,0,3.62-.15,5.45-.17,1.09-.05,2.13-.05,3.12-.06,1.34,0,2.68-.08,4-.08l2.88,0c.94,0,1.88-.07,2.87-.08s1.88,0,2.83,0,1.68,0,2.47,0c1.19,0,2.43.06,3.67.06a7,7,0,0,0,1.44,0l3.87.17c1,0,2,.18,3.07.23l2.78.26c.34.07.64.08.94.14a26,26,0,0,1,2.82.77,6.92,6.92,0,0,1,3.43,2.91A1.88,1.88,0,0,0,92.36,63.64ZM.59,49.53c0-.39,0-.79-.1-1.19a24.43,24.43,0,0,1-.25-4.26c0-.55,0-1.09.1-1.58.15-.74.15-1.48.25-2.27.2-1.08.4-2.06.55-3.09a.25.25,0,0,0-.2,0,.18.18,0,0,0-.1.19,44.74,44.74,0,0,0-.75,6.35,8.73,8.73,0,0,0,0,2c0,1.24.2,2.53.35,3.78,0,.09.1.15.1.25A.2.2,0,0,0,.59,49.53Zm0-5.24a2.53,2.53,0,0,0-.1-.65c.05.55-.15,1,.05,1.54A2.74,2.74,0,0,0,.59,44.29Zm.1-2.57c-.2.24-.1.49-.15.79a7.39,7.39,0,0,0-.05,1s.1-.09.1-.09A6.69,6.69,0,0,0,.69,41.72ZM.79,40l-.1,1.09c0,.19-.1.39,0,.54l.25-1.13A.49.49,0,0,0,.79,40Zm0,10.89c0-.1,0-.15,0-.3H.74c0,.15,0,.25.05.3Zm.34-12.21a13.77,13.77,0,0,0,.25-1.52,1.31,1.31,0,0,0-.2.39L.94,39.4a1.27,1.27,0,0,0-.15.54c.2,0,.25-.14.3-.38A4.44,4.44,0,0,0,1.18,38.67Zm0-1.58c.14-.69.29-1.43.44-2.06,0-.05,0-.05,0-.1.05-.39.3-.73.2-1.13a1.16,1.16,0,0,0-.2,1.13c-.2,0-.25.19-.35.43-.05.44-.14.89-.19,1.33C1,36.79,1.14,36.94,1.14,37.09Zm.39,5.7a7.38,7.38,0,0,0-.1,1c-.05.25.05.55-.05.79.05.2-.1.44.1.6a.78.78,0,0,0-.1-.6.75.75,0,0,0,.05-.79c.15,0,.15-.29.15-.44S1.68,43,1.53,42.79Zm-.3,3.61a.72.72,0,0,0-.05-.34v.34Zm.45-10a.36.36,0,0,0-.2.53C1.63,36.76,1.63,36.56,1.68,36.37Zm.05,5.34a27.07,27.07,0,0,1,.6-3.43c.1-.4.15-.84.25-1.18a.9.9,0,0,1,0-.39c-.15.14-.15.14,0,.39a.91.91,0,0,0-.25,1.18c-.2,0-.25.28-.25.43-.1.64-.2,1.28-.35,2A11.85,11.85,0,0,0,1.58,42c-.05.1,0,.2,0,.3A1.13,1.13,0,0,0,1.73,41.71Zm.45-5.39a.47.47,0,0,0-.05-.45.46.46,0,0,0,.05.5Zm-.3-.79a5,5,0,0,0,.25-.92.26.26,0,0,0-.2.28,4.23,4.23,0,0,0-.3.93C1.73,35.73,1.83,35.68,1.88,35.53Zm0-1.78c.1,0,.1-.14.05-.29.15,0,.15-.19.2-.34.15-.34.25-.68.4-1a1.73,1.73,0,0,1,.1-.54c0-.15.14-.34.09-.49-.34.28-.29.63-.19,1-.1,0-.25,0-.25.14a2.75,2.75,0,0,0-.35,1.22A.22.22,0,0,0,1.88,33.75Zm.3.41c-.15.14-.15.19-.05.35Zm-.05,14.6a.8.8,0,0,0,.15.4C2.33,48.82,2.33,48.82,2.13,48.76Zm.15-15.43c.1,0,.25,0,.3-.19s.24-.58.14-.88c-.24.13-.19.33-.29.58s0,.39-.15.49c0,.14-.1.29-.1.44C2.43,33.68,2.28,33.47,2.28,33.33Zm-.1,16.88c-.05,0-.05,0-.05,0h.05Zm.69-14.58a.23.23,0,0,0-.05.34.4.4,0,0,0-.19.34c.19,0,.14-.24.19-.34S2.87,35.73,2.87,35.63Zm.2-4.6a2.41,2.41,0,0,0-.3,1.18A2.41,2.41,0,0,0,3.07,31c.3-.28.4-.52.3-.82A1.28,1.28,0,0,0,3.07,31Zm-.25-.25a.24.24,0,0,0,.05-.3A.33.33,0,0,0,2.82,30.78Zm.76,3.08-.05.35a.64.64,0,0,1-.15.34.58.58,0,0,1,0,.29.68.68,0,0,1-.15.29v.35a.43.43,0,0,0,0-.35c.15,0,.15-.14.15-.29s.15-.19,0-.29c.2,0,.15-.24.15-.34A.31.31,0,0,0,3.58,33.86Zm-.51-4c-.1.19-.25.33-.15.53.25-.08.15-.29.15-.53.2-.19.2-.19.2-.54C3.17,29.55,3,29.74,3.07,29.9Zm.35,3.47-.15.39C3.42,33.72,3.52,33.63,3.42,33.37Zm.05-3.7c0,.14-.1.29-.1.49a.58.58,0,0,0,.35-.43c0-.2,0-.35.2-.39a1.41,1.41,0,0,1,0-.4c-.1.09,0,.3,0,.4A.52.52,0,0,0,3.47,29.67Zm.3,2.78,0,0-.1.09a.25.25,0,0,1,0,.15c0-.1,0-.15,0-.15a.12.12,0,0,1,.1,0S3.72,32.5,3.77,32.45Zm0-4.21L3.92,28C3.72,27.94,3.72,28.09,3.77,28.24Zm.3.12a2.14,2.14,0,0,0-.2.53c.29-.09.25-.34.2-.53s.19-.09.24-.24a1.6,1.6,0,0,1,.25-.63,1.53,1.53,0,0,1-.35.08A2.44,2.44,0,0,1,4.07,28.36Zm.06-.61a.22.22,0,0,0,0,.16v-.1A.06.06,0,0,0,4.13,27.75Zm.1,3.73-.05-.05v.14C4.18,31.52,4.23,31.53,4.23,31.48Zm-.05-3.91v0Zm.05-.64a.29.29,0,0,0-.05.34v0c0-.1.05-.15.05-.3a.37.37,0,0,1,.2-.19C4.33,26.79,4.18,26.78,4.23,26.93Zm.95,3.23H4.56a.45.45,0,0,1-.2.09.39.39,0,0,1-.18.49v-.49a8.29,8.29,0,0,0,1,0Zm-1.1-3.57c.1.05.1.1.1.15v-.15Zm.63.46a.16.16,0,0,0,0,.14A.16.16,0,0,1,4.71,27.05ZM5.18,26l.05-.05-.05-.05Zm-.07.11c0-.05,0,0,0-.09S5.11,26,5.11,26.07Zm.07-1.52a.18.18,0,0,1,.1,0l0-.2c0,.05-.05.05-.05.14Zm.05.8c0-.1,0-.1-.05-.1v.15S5.18,25.35,5.23,25.35Zm.6-.68c.1-.15.2-.39.35-.58v-.2a0,0,0,0,0,0,.05c0,.1,0,.1,0,.15C5.83,24.32,5.73,24.37,5.83,24.67ZM6.3,23.4a.15.15,0,0,0,0,.1c0-.05.05,0,.05,0s-.05-.05-.05-.1Zm-.22-.89a.06.06,0,0,0,0,.06,0,0,0,0,0,0-.05v-.1S6.08,22.47,6.08,22.51Zm.62.27h0a1,1,0,0,0,0-.35A3.19,3.19,0,0,0,6.7,22.78ZM7,22l-.15.39s.1-.05.15-.1S7.14,22.1,7,22Zm0-.45c0-.05.1,0,.1-.09a.3.3,0,0,0,0-.2s0,0,0,.14S7,21.5,7,21.55Zm.39.07-.16-.43v-.1c.51,0,.46,0,0-.05v.05c.46.05.51.1.51.1C7.34,21.22,7.34,21.22,7.34,21.62Zm.15-1.23h.15a0,0,0,0,0,0-.05C7.49,20.34,7.49,20.34,7.49,20.39Zm.3,3.72-.15.19c.05,0,.05.05-.46.05V24.3c.76,0,.76,0,.76-.33.15-.09.1-.2,0-.3.3-.13.3-.13.25-.43.3-.14.3-.14.3-.34a1,1,0,0,0-.3.34c0,.14-.1.29,0,.43V24C7.89,24,7.84,24,7.79,24.11Zm0-3.51c.25-.19.25-.19.15-.34Zm.29-1h.1v-.05Zm0,.22a.11.11,0,0,1,.1-.1v-.1s-.1.1-.1.1S8.08,19.78,8.08,19.83Zm.05-1.33,0,.06v0Zm.8.27c.05.1.05.15.1.2s0-.1,0-.2Zm.2,2.73c0,.2-.3.28-.1.54.2-.19.15-.34.1-.54h.35a2.17,2.17,0,0,0-.05-.25C9.28,21.35,9.18,21.4,9.13,21.5Zm0-3.32h.05l-.05-.05h.05a.18.18,0,0,0,.1,0c-.05,0-.1,0-.15,0h0Zm.55-.77c.1,0,.1,0,.15-.09a0,0,0,0,1-.05-.05C9.73,17.31,9.73,17.36,9.73,17.41Zm.4,3h0v-.14c.05,0,.1-.05.15-.05a.22.22,0,0,0-.05-.15l0,.05a.39.39,0,0,0-.05.15S10.13,20.34,10.13,20.39ZM10,16.88c0,.05.05.05.09.06s.2-.19.25-.34,0-.05,0-.05S10.12,16.79,10,16.88Zm.74-1s.05,0,.05,0a1.86,1.86,0,0,1,.35-.33c-.05-.06-.15-.06-.15-.11A1.51,1.51,0,0,0,10.77,15.88Zm.41,2.77-1,.05v.05h1Zm1-.67h-1v-.1a3.76,3.76,0,0,0,1,.05Zm-.61-3c.09-.24.34-.38.29-.73.05,0,.2.06.25-.09-.1,0-.2,0-.25.09l-.39.53C11.42,14.81,11.37,14.86,11.57,15Zm.61,2a4.58,4.58,0,0,0-1-.05V17l1,.05Zm1-3.45a4.86,4.86,0,0,1-1,0v-.1a8.52,8.52,0,0,1,1,.05Zm-.52-.19a.34.34,0,0,0,.3-.33C12.66,13.18,12.66,13.18,12.66,13.38Zm.47,2.3h0v0Zm.12-3.06.45-.48C13.4,12.23,13.35,12.27,13.25,12.62Zm.93-.67a.17.17,0,0,1,.05-.1c-.05,0-.05,0-.05,0Zm.37-1a0,0,0,0,0,0,0,.26.26,0,0,0,.19-.29h0C14.6,10.79,14.5,10.84,14.55,11Zm.89-.8c-.15,0-.25.08-.4.18a1.17,1.17,0,0,1-.2.29c.1-.05.15-.05.2-.15a.65.65,0,0,0,.4-.32,3.54,3.54,0,0,1,.25-.34C15.39,9.94,15.39,10,15.44,10.19Zm.64-.92.05.05a.35.35,0,0,0,.2-.18.06.06,0,0,1,0-.06A.58.58,0,0,1,16.08,9.27Zm.8-.61c.05-.14.1-.14.15-.19C16.93,8.42,16.78,8.46,16.88,8.66Zm.6-.66a2.51,2.51,0,0,0,1-.9s-.1,0-.15-.06c-.3.34-.55.57-.84.86C17.43,7.9,17.48,8,17.48,8ZM18,10.05h0Zm1.62-3.52c.2-.23.45-.37.64-.56a.18.18,0,0,0,0-.15c.25.06.35-.08.4-.28a.48.48,0,0,0,.4-.28,2.79,2.79,0,0,1,.5-.32c.19-.09.09-.25.05-.35a.56.56,0,0,0,.64-.17c-.1,0-.2,0-.3,0l-.34.13a.81.81,0,0,1-.5.43V5c0,.1-.05.24-.05.29s-.35.09-.4.28a.41.41,0,0,0-.4.28C19.89,6.05,19.79,6.15,19.64,6.53Zm1-1.62c0,.06,0,.06.1.06s0,0-.05,0S20.6,4.91,20.6,4.91ZM22,4.18c0,.05-.05.1-.05.15l.34-.14c.15-.09.15-.19.1-.34a2.1,2.1,0,0,1,.5,0l.84-.56c.1,0,.15-.19.15-.34a2.71,2.71,0,0,1-.84.51.49.49,0,0,0-.2.39,1.85,1.85,0,0,0-.45,0A1.37,1.37,0,0,1,22,4.18Zm2.28-1.29c.1,0,.3,0,.3-.28C24.33,2.65,24.23,2.74,24.23,2.89Zm.7-.36.64-.37a.86.86,0,0,0,.25-.34.92.92,0,0,0,1.09-.4,2.83,2.83,0,0,1-.59.22,3.11,3.11,0,0,1-.5.18l-.45.28C25.17,2.19,25,2.23,24.93,2.53Zm2.43-1.29L27,1.38c.15,0,.3,0,.35-.14.2.06.25-.08.35-.23A.65.65,0,0,1,27.36,1.24Z"></path><path class="cls-1" d="M54,38.7l-.9.8a4.3,4.3,0,0,1-1,.23v.15a.1.1,0,0,1-.1.09l-.09.14c-.05,0-.09,0-.09.09a.1.1,0,0,0-.1.09l-.28.13c-.66.67-1.37,1.3-2.07,2a1.14,1.14,0,0,0-.15.23.1.1,0,0,0-.09.09c-.05,0-.09,0-.09.09s0,0,.09-.09,0,0,.09-.09c.19,0,.29-.22.43-.31a1.21,1.21,0,0,1,.52-.45.64.64,0,0,1-.33.37c-.76.81-1.56,1.62-2.36,2.43a21.1,21.1,0,0,1-1.46,1.53,20,20,0,0,1-2.31,2.21,3,3,0,0,1-.66.44,1.07,1.07,0,0,1-1.22-.2l-.24-.15a1.15,1.15,0,0,1-.42-1,4,4,0,0,1,.14-1.08,33.55,33.55,0,0,1,1.41-4.21c.14-.51.33-1,.52-1.48a.77.77,0,0,0,.09-.32c.05-.1,0-.14,0-.19s-.19-.2-.19-.39V39l-1-.16v.05l1,.1v-.1s-.38,0-.38.09h0a1,1,0,0,1-.2.29.09.09,0,0,1-.1.09l-.1.15h.1c-.05,0-.05.05-.1.1a13.72,13.72,0,0,1-4.07,3.29,4.39,4.39,0,0,1-1.14.39,1.65,1.65,0,0,1-.85-.08A2.2,2.2,0,0,1,35.1,42a.69.69,0,0,1-.05-.55,3.67,3.67,0,0,1,.3-1.12,9.19,9.19,0,0,1,.6-1,8.92,8.92,0,0,1,2.08-2,4.5,4.5,0,0,1,2.88-.76,3,3,0,0,1,.9.23c.3.11.35.12.59-.17.35-.53.75-1,1.1-1.54l.68.11v-.13c.74-.75,1.38-1.64,2.17-2.34a2.37,2.37,0,0,1,.51-.49.44.44,0,0,1,.6,0,3.32,3.32,0,0,1,.32.24.87.87,0,0,1,.37,1.08,10.88,10.88,0,0,1-.74,1.81,1.39,1.39,0,0,0-.19.36l.14-.18a.51.51,0,0,1-.18.4V36a3.56,3.56,0,0,1-.23.62l0,.18.22.15a.34.34,0,0,1-.09.18,1.67,1.67,0,0,1-.09.31,1.42,1.42,0,0,0-.36.84,1.13,1.13,0,0,0-.32.72.19.19,0,0,0-.09.17v.1a2.81,2.81,0,0,0-.7.78,1,1,0,0,0-.2.53c-.1.1-.1.2-.14.34h0a1.15,1.15,0,0,0-.24.54c0,.05,0,.15-.1.19a.66.66,0,0,0-.25.39l-.75,2a1.58,1.58,0,0,0-.19.69A5.55,5.55,0,0,0,43,46.69a1.57,1.57,0,0,0-.2.83h0c.25.21.25.21.35.12l.45-.33c.79-.81,1.63-1.66,2.48-2.47s1.49-1.42,2.23-2.08,1.64-1.56,2.49-2.32,1.54-1.47,2.38-2.12a1,1,0,0,0,.2-.14c.3-.24.35-.24.65,0S54.22,38.51,54,38.7Zm-13.76.55.94-1.15a4.7,4.7,0,0,0,.4-.52s0-.15-.1-.21h-.25a2.9,2.9,0,0,0-1.24.25,6.58,6.58,0,0,0-1.29.73.86.86,0,0,1-.5.23c.1-.19.35-.28.45-.47s.25-.09.3-.24a.78.78,0,0,0-.35.18,3.68,3.68,0,0,0-1.39,1.38c-.15,0-.25.24-.3.38a.48.48,0,0,0,.3-.38,1.4,1.4,0,0,0,.4-.33,1.82,1.82,0,0,1,.49-.42.89.89,0,0,1-.25.48,4.32,4.32,0,0,0-1,1.24,3.84,3.84,0,0,0-.5,1.46c-.05.2.1.31.3.26a4,4,0,0,0,1-.5A17.35,17.35,0,0,0,40.27,39.25Zm-3.58.84a.38.38,0,0,0,.25-.24C36.84,39.9,36.79,40,36.69,40.09Zm.15-1.23h.34v-.1h-1v.1l1-.1c0-.05,0-.1.1-.09h-.06v.1h-1v-.1a4.28,4.28,0,0,1,.76.09A.11.11,0,0,0,36.84,38.86Zm.24-.24h.1v0S37.13,38.62,37.08,38.62Zm0-.1h.1v.1a.11.11,0,0,0,.1-.1h-.1v-.1A.09.09,0,0,1,37.08,38.52Zm.05-.09h0v-.1C37.18,38.38,37.13,38.38,37.13,38.43Zm0,.1.1-.09a1.46,1.46,0,0,0,.64-.72s0,0,.1-.09a.25.25,0,0,0,.2-.09.19.19,0,0,0-.2.09l-.15.09a1.23,1.23,0,0,0-.69.62s0,0,.1.1h-.1Zm2,2v0l.89,0H40c0-.05.21-.15.21-.15v.1s-.06,0,0-.09.1,0,.1-.1h-.1s.1,0,.1-.1,0,.05,0,.1,0,0,0-.09h-.1a6.21,6.21,0,0,1,.91-.09v.1l-.66-.1a.85.85,0,0,0,.39-.52h-.1s-.63-.09-.63-.09v.1a5.93,5.93,0,0,0,.88-.1l.1-.09h-.1c0-.05.12-.14.12-.14v.1a.58.58,0,0,1,.08-.1.38.38,0,0,0,.2-.28l.1-.1h.62V39h-.82c0-.05.1-.09.1-.14l.72-.1v.1s-.52,0-.47-.09h.47v-.19c-.52,0-.52-.05-.47-.1h.47v.19s-.17-.19-.17-.28h-.1a.84.84,0,0,1,.27-.09v0s-.07,0,0,0h0V38a.57.57,0,0,0-.47.43c-.05,0-.1,0-.15.09a1.31,1.31,0,0,0-.35.39.1.1,0,0,1-.1.09c-.25.24-.44.48-.64.71a12.1,12.1,0,0,0-1,1.1c.15,0,.3-.14.45-.18A3.26,3.26,0,0,0,39.18,40.53Zm.74,1a.27.27,0,0,0-.25.14A.41.41,0,0,0,39.92,41.51Zm3-3c.05,0,.05-.09,0-.15s-.1,0-.1,0l-.2.19a25.41,25.41,0,0,1-2,2.19l-.25.29c0,.05,0,0-.1.09a.33.33,0,0,0-.2.24.44.44,0,0,0,.25-.19l.1-.09a1.45,1.45,0,0,0,.44-.33,26.16,26.16,0,0,0,2-2.19S42.9,38.52,42.9,38.47Zm-2.72,1.82v.1h-.1C40.13,40.38,40.13,40.33,40.18,40.29Zm1-.91v.1h-.1A.11.11,0,0,1,41.18,39.38Zm0-.33v.19h-.1a.18.18,0,0,1,.05-.15Zm.13-.1h0s0,0-.1.1S41.26,39,41.31,39Zm.85-1.05h.09a.09.09,0,0,1,.1-.09C42.21,37.7,42.16,37.7,42.16,37.9Zm0,1.54h.1a.19.19,0,0,1-.1,0Zm1.71-2.31a6.28,6.28,0,0,0,.7-.91h-.05l-.15.14s0,0,.1,0a.44.44,0,0,1-.25.19l-.1.15a.16.16,0,0,0,0,.09v-.05l-.24.14c0,.1,0,.2-.1.25l-.19.19s0,0,0,0a.85.85,0,0,1-.42.34v.1c.22,0,.27,0,.27,0A1.76,1.76,0,0,0,43.89,37.13Zm-.44,7.16a.86.86,0,0,0,.2-.49C43.5,43.94,43.5,44.09,43.45,44.29Zm1.39-8L43.7,37.81a1,1,0,0,0-.05.84c.05.2.05.4.09.6,0,0,0,.15.1.15s.1-.09.1-.14C44.09,39,45.14,36.49,44.84,36.28Zm-.66,6.06v0S44.23,42.34,44.18,42.34Zm.36-6.12c0,.05,0,0,0,.09S44.49,36.26,44.54,36.22Zm.15-1.48c.1-.05.25-.09.3-.24l.1-.14a.31.31,0,0,0,.29-.19c0-.05,0-.09.8-.14v.1c-.65-.05-.65-.1-.6-.15a.41.41,0,0,0,.3-.28l.1-.14a.19.19,0,0,0-.1,0,.18.18,0,0,1-.05-.15h.35v-.1c-.3,0-.3,0-.35.09a.9.9,0,0,0-.45.43.71.71,0,0,0-.34.43s-.1.09-.1.14Zm.59,5a1,1,0,0,0-.24.49A1,1,0,0,0,45.28,39.76Zm-.1-5.83s0,0,.1,0-.05,0-.1.05Zm0,6.19v0h0A0,0,0,0,0,45.18,40.12Zm.65-1.62a.34.34,0,0,0-.1.29C45.78,38.69,45.78,38.6,45.83,38.5Zm.1-5.19a.44.44,0,0,0,.3-.29.13.13,0,0,0,.1,0l.05,0c-.05,0-.05,0-.1,0s-.05,0-.05.09A1.67,1.67,0,0,0,45.93,33.31Zm.25,4.27c0,.05,0,0-.1.09s0,.1.05.1l0-.05Zm1.34,6.29a7.8,7.8,0,0,0-1.19,1.18c-.1.05-.1.15-.15.24a9,9,0,0,0,1.24-1.23A.26.26,0,0,0,47.52,43.87ZM47.32,45s0,0-.1.09a2.88,2.88,0,0,0-.94,1,3.43,3.43,0,0,0,.94-1C47.27,45,47.32,45,47.32,45Zm-.74-8.15a.61.61,0,0,0-.2.49A.86.86,0,0,0,46.58,36.8Zm.6.31a.3.3,0,0,1,0-.2h0Zm.24,7.69-.1.1A.11.11,0,0,0,47.42,44.8Zm.1-.09c-.05,0-.05,0-.05.09S47.52,44.76,47.52,44.71Zm1.89-1.85c-.1,0-.1,0-.15.09l-.1.09s0,.05-.1.1-.1,0-.1.09l-.1.1a6.88,6.88,0,0,0-1.24,1.23.18.18,0,0,0,0,.15,5.43,5.43,0,0,0,1.29-1.33c0-.05.1-.05.1-.1l.1-.09.15-.14.1-.1S49.36,42.9,49.41,42.86Zm-1.29.44c.05,0,.05,0,.05,0Zm.19-.19a1.31,1.31,0,0,0,.75-.71A2.42,2.42,0,0,0,48.31,43.11Zm1.94-1.85a5,5,0,0,0-.94.9A1.83,1.83,0,0,0,50.25,41.26Zm.83.46s.05-.09.1-.14v.05S51.13,41.68,51.08,41.72Zm-.28-.14a8,8,0,0,1,.94-.9A1.84,1.84,0,0,1,50.8,41.58ZM52,39.75a2.71,2.71,0,0,0-1,.85,1,1,0,0,0,.49-.28Zm-.1.84s-.1,0-.1.09A.1.1,0,0,1,51.89,40.59Zm.45-.53h.1a1,1,0,0,1-.55.47Zm-.16,0V40h.1A.11.11,0,0,0,52.18,40.07Zm0-.15v-.05h.1C52.23,39.88,52.23,39.93,52.18,39.92Zm0-.19h.1c-.05.05-.05.1-.1.1Zm1.25-1.35a2.68,2.68,0,0,0-.55.47C53.23,38.72,53.23,38.72,53.43,38.38Z"></path><path class="cls-1" d="M64.31,42.31a52.76,52.76,0,0,0-7.55,4.27c0,.05-.15.1-.2.19a.62.62,0,0,0-.3.78c.15.5.25,1.05.35,1.55A21.81,21.81,0,0,1,57.15,53a12.9,12.9,0,0,1,0,2c-.1.54-.15,1-.29,1.52a1.1,1.1,0,0,0-.05.4,1.19,1.19,0,0,1-.2.68c0-.05-.38-.1-.38-.1v.1s.38.4.13.49a.83.83,0,0,0-.15.24l-.6,1.45a1.68,1.68,0,0,0-.34.63h.15l-.19.19v0a1.84,1.84,0,0,0-.16.24h0a1,1,0,0,0-.2.29,23,23,0,0,1-7.1,6.72,9,9,0,0,1-3.18,1.2A2.75,2.75,0,0,1,42.9,69a7.07,7.07,0,0,1-1.09-.59,2,2,0,0,1-1.05-1.68A6.62,6.62,0,0,1,41,64.07a19.38,19.38,0,0,1,1.69-4.18,35.4,35.4,0,0,1,3.43-5.35c.74-.95,1.59-1.86,2.43-2.76a37.48,37.48,0,0,1,3.53-3.37c.59-.51,1.14-1,1.78-1.5a.7.7,0,0,0,.25-.78l-.39-1.46c-.3-1.1-.65-2.25-.95-3.35a5.39,5.39,0,0,1-.2-2.19,4.11,4.11,0,0,1,1-2.53,11.57,11.57,0,0,1,1.88-2,9.07,9.07,0,0,1,3.58-2,4.28,4.28,0,0,1,.84-.16,1,1,0,0,1,.7.37.26.26,0,0,1-.1.39c-.4.14-.74.32-1.14.5a14.65,14.65,0,0,0-1.64,1,1.79,1.79,0,0,1-.75.46s0-.14.1-.19.05-.1.1-.1l.15-.14a2.32,2.32,0,0,0,.85-.61,1.54,1.54,0,0,0,.54-.32c.05,0,.15,0,.2-.14s-.2,0-.25.09a1.36,1.36,0,0,0-.59.32,2.89,2.89,0,0,0-.8.56l-.15.14c-.05.05-.1.1-.15.09a1.53,1.53,0,0,0-.24.29c-.05,0-.1,0-.15.09a.91.91,0,0,0-.4.48,1.2,1.2,0,0,0,.45-.42s.1,0,.15-.1a.22.22,0,0,0,.19,0,.65.65,0,0,1-.29.43,1.5,1.5,0,0,0-.45.53l-.15.14c-.2.14.12.58.12.58v.14s-.67.15-.72.25h-.14c-.25.53-.55,1.11-.75,1.65a3.62,3.62,0,0,0-.25,1.77,12.36,12.36,0,0,0,.55,2.35c.15.55.35,1.1.54,1.66a.76.76,0,0,0,.1.35c.15.3.25.35.6.12a8.17,8.17,0,0,0,.89-.6,37.39,37.39,0,0,1,3.48-1.88c3.33-1.59,4.47-2,5.46-2.49C67.24,39.61,68.58,40.46,64.31,42.31ZM53.38,59A12.3,12.3,0,0,0,55,53.29,24.83,24.83,0,0,0,54.72,49c0-.1,0-.2-.1-.3a.24.24,0,0,0-.3-.11c-.4.33-.79.61-1.14.94-.79.76-1.64,1.51-2.38,2.37l-.15.15-.47.42v.07a.11.11,0,0,0-.1.09h0a2,2,0,0,1-.29.33,14.06,14.06,0,0,0-1.12,1.31,1.26,1.26,0,0,0-.44.57v.07A.56.56,0,0,0,48,55a5,5,0,0,0-.89,1.2l-.15.24c-.2.14-.79.62-.79.62V57l1,.3v-.05l-2,1.49v0l1,.29v-.05a10.27,10.27,0,0,0-1,.24,7.2,7.2,0,0,0-.84,1.6,4.43,4.43,0,0,0-.35.73H44a1.34,1.34,0,0,0-.35.82c-.2.14-.15.34-.24.49a5.72,5.72,0,0,0-.55,2.35,2.35,2.35,0,0,0-.05.59,3.53,3.53,0,0,0,.1,1.44,1.73,1.73,0,0,0,.25.51.41.41,0,0,0,.54.17,9.94,9.94,0,0,0,1.69-.77,23.09,23.09,0,0,0,2.73-1.86A21.53,21.53,0,0,0,51,62.37,19.55,19.55,0,0,0,53.38,59ZM43.13,62.14h0v0A0,0,0,0,1,43.13,62.14Zm.95-.83.05,0,0,0v-.1S44.13,61.27,44.08,61.31Zm-.14-.72a1.31,1.31,0,0,0,.5-.77A1.51,1.51,0,0,0,43.94,60.59Zm.5-.83a.49.49,0,0,0,.15-.33A.41.41,0,0,0,44.44,59.76Zm0-.38a1.18,1.18,0,0,0,.45-.58A29.6,29.6,0,0,1,46.78,56a49,49,0,0,1,4.52-5.15l2.63-2.41a.56.56,0,0,0,.25-.23v-.1h0a.48.48,0,0,0-.25.19,47.07,47.07,0,0,0-3.58,3.31,37.86,37.86,0,0,0-5.56,7.14A4,4,0,0,0,44.39,59.38Zm2.28-4.62h.1a.3.3,0,0,0,0-.2A.79.79,0,0,0,46.67,54.76Zm.15-.24h-.64v-.1h1v-.25l-.21.24S46.87,54.53,46.82,54.52Zm.15.06c0,.05,0,.15,0,.19l.15-.19Zm.15-.44a.38.38,0,0,0,.25-.09l.05-.19C47.27,53.9,47.22,54.05,47.12,54.14Zm.3-.33h.1a.17.17,0,0,0,0-.1h.61v.1l-.36-.1h-.15l.15-.14a.54.54,0,0,1,0-.25H48s.1-.05.22-.1V53a.56.56,0,0,0-.31.34.73.73,0,0,0-.3.38S47.47,53.81,47.42,53.81Zm.15,0a.3.3,0,0,0,0,.2l.15-.19Zm.59-.86h.1c.05,0,.1-.09-.08-.14V53c.28,0,.33-.1.33-.15h-.1c.05,0,.1,0,.77-.09v-.25C48.36,52.61,48.21,52.8,48.16,53Zm.92-.48h.1v-.1A.09.09,0,0,0,49.08,52.52Zm-.37-.14h.47v.15s-.27-.09-.22-.14a1.25,1.25,0,0,0,.15-.24l.15-.1a.93.93,0,0,0,.14-.14l.15-.09H49.4c0-.1.05-.14.05-.24h.73v.2l-.48-.19s.1-.1.1-.15h-.1a2,2,0,0,1,.48-.09v.1s-.28,0-.23-.1h-.1c0-.05-.67-.15-.67-.15v.15a6.88,6.88,0,0,0,.92-.14l.15-.24c0-.05,0-.05-.1-.1h0V51c0-.05,0,0,.1-.09l.15-.14s.1,0,.15-.1l.15-.14a.86.86,0,0,0,.25-.34H51s0-.09.1-.14H51a.14.14,0,0,0,0-.09h.1V50a.64.64,0,0,0,.21-.09l.15-.14c.05-.05.1-.1.15-.1a5.56,5.56,0,0,0,1-.94l.15-.15.1-.09a.17.17,0,0,0-.1,0,0,0,0,0,0,.05-.05h0a.15.15,0,0,0,0,.1s.05-.09.1-.14l.15-.09.15-.15.15-.09h-.15a.12.12,0,0,0,0-.09l-.25,0V48a2.37,2.37,0,0,0,.45-.09h-.1a.17.17,0,0,0,0-.1h.6v.1s-.45,0-.4-.1h-.1a.17.17,0,0,1,0-.1.18.18,0,0,0,.1,0c0,.05,0,.1,0,.09s.09,0,.14-.09a.24.24,0,0,1,.15-.09l.15-.14h0v.09h.09c0-.14-.05-.09-.14,0a.23.23,0,0,1-.13.08l-.14.13s-.09.09-.09.13a.23.23,0,0,0-.13.08s-.09.09-.14.09l-.13.13s-.09.08-.14.08l-.13.13a.21.21,0,0,1-.09.13.29.29,0,0,0-.14.08l-.13.13a5.38,5.38,0,0,0-1.17,1.07c0,.05,0,0-.09.09l-.13.13a1.61,1.61,0,0,0-.63.64l-.14.13a1.07,1.07,0,0,0-.49.52h.09v.35h-.63s0-.1.05-.09-.1,0-.15.09a.62.62,0,0,0-.29.33L49,52A.51.51,0,0,0,48.71,52.38Zm.4-.23L49,52h.15C49.16,52.1,49.16,52.1,49.11,52.15Zm.07-.1V51.9h.08c.05,0,.1,0,.92-.1v.1h-.87a.16.16,0,0,0-.05.14Zm1-1.19v-.15h.15c0,.05,0,.1,0,.15Zm0-.23v.09h-.1S50.13,50.67,50.18,50.63Zm1-.15v.15H51Zm-.1-.43c.05,0,.05,0,.1,0v.15C51.13,50.1,51.13,50.05,51.08,50.05Zm.25-.28s0,.1,0,.15h-.1v-.09S51.28,49.77,51.33,49.77Zm-.15-.09v.1h-.1C51.08,49.72,51.13,49.73,51.18,49.68Zm2,11.35a.44.44,0,0,1,.2-.24.27.27,0,0,0,0,.19c.1,0,.15-.09.15-.19h-.15c.1-.1.15-.2.2-.24l0,.19c.1,0,.15-.09.15-.19a.44.44,0,0,0,.2-.24c.09,0,.09-.14.09-.24a1.11,1.11,0,0,0,.35-.63h-.1a.52.52,0,0,1-.2.24l.15-.25a.78.78,0,0,0,0-.34c-.15.09-.2.24-.29.38-.25.44-.55.82-.8,1.26l-.6,1a.77.77,0,0,0-.29.38.64.64,0,0,0,.34-.33C52.73,61.55,52.88,61.21,53.13,61Zm0-12.39v.1c0-.05,0-.05,0-.1Zm.1,0h-.1v-.1s0,0,.1,0S53.28,48.55,53.28,48.59Zm2.28,10.22c-.24.13-.29.38-.44.57a18.61,18.61,0,0,1-1.89,2.94,1.7,1.7,0,0,0-.3.53,1.29,1.29,0,0,0,.4-.33,14.09,14.09,0,0,0,1.54-2.21A5.81,5.81,0,0,0,55.56,58.81ZM53.18,48.26v.1h-.1c0-.05.05,0,.05-.09Zm0-.14v.15s0-.06-.1-.06a0,0,0,0,1,.05-.05S53.18,48.17,53.18,48.12Zm0,12.91a.27.27,0,0,0,0,.19l.15-.19Zm1-13h-1v.1h1Zm-.55,12.29a1.92,1.92,0,0,0-.05.24h-.1A.83.83,0,0,1,53.63,60.31Zm.1-.05s0,0-.1.05a1.09,1.09,0,0,1,.15-.25Zm.05-.2c0-.14,0-.29.14-.38a1.07,1.07,0,0,1-.05.39Zm.4-12.51v.1h-.1a.15.15,0,0,1,.05-.1Zm-1-.09v.1a7.3,7.3,0,0,0,1-.05v0Zm3,12.87a2,2,0,0,1-1-.24v0a4.7,4.7,0,0,0,1,.24Zm-.67-.24c0-.1.05-.25.05-.35s.1.06.15.06Zm.1-1.43c0,.05,0,.05,0,.1S55.66,58.71,55.61,58.66Zm.57-22.41s0-.1.1-.14l-.1.09Zm0,9.62a.25.25,0,0,0,.2-.09l.15-.09h-.15a.15.15,0,0,0,.05-.1s.1,0-.28,0v.1c.43,0,.48,0,.53-.1a2.89,2.89,0,0,1,.47-.33v-.14a1.11,1.11,0,0,0-.62.32l-.15.14a1.11,1.11,0,0,0-.25.14c-.1,0-.15.09-.1.19Zm2.15-.75a1.25,1.25,0,0,0-.54.32,2.16,2.16,0,0,0-.7.47,2.47,2.47,0,0,0-.94.7v0h0a3.07,3.07,0,0,0,.94-.7,1.58,1.58,0,0,0,.7-.47A.92.92,0,0,0,58.36,45.12ZM56.21,34.59s0,.1,0,.1a.17.17,0,0,1,.1,0h0c.05,0,.1-.1-.23-.15v.15c.43,0,.48-.09.48-.14h-.1s.1,0-.38-.09v.1c.53,0,.58,0,.63-.1l.14-.14a5.89,5.89,0,0,0,.95-.55c.05-.1.15-.14.1-.2s-.15-.05-.2,0a1.84,1.84,0,0,0-.94.55l-.15.14A1,1,0,0,0,56.21,34.59Zm.5,10.95h-.15s0,0,0-.1S56.66,45.49,56.71,45.54Zm.15-11.27a.16.16,0,0,1,0,.14h-.1s0-.1,0-.1A.12.12,0,0,0,56.86,34.27Zm.32-.05a.17.17,0,0,1,.1.05h-.1Zm-.1,10.85h.1v.15l.1-.14h-.1V45a.36.36,0,0,1,.15.11,1.48,1.48,0,0,1,.25-.34.71.71,0,0,0-.4.23C57.13,45,57.08,45,57.08,45.07Zm.77-.47a.55.55,0,0,0,.35-.23A.86.86,0,0,0,57.85,44.6Zm1,.19a.41.41,0,0,0-.35.19A.49.49,0,0,0,58.89,44.79Zm.55-.37a.88.88,0,0,0-.35.24A.56.56,0,0,0,59.44,44.42Zm.4-.23a.88.88,0,0,0-.35.24A.88.88,0,0,0,59.84,44.19Z"></path><path class="cls-1" d="M83.49,39.91l-.91.81a.78.78,0,0,1-.4.24v-.32a.11.11,0,0,1-.11.1l-.1.15a.12.12,0,0,0-.11.1.11.11,0,0,0-.1.1l-.31.14c-.74.76-1.52,1.45-2.31,2.2a1.33,1.33,0,0,0-.16.26.09.09,0,0,0-.1.1c0,.05-.1,0-.1.1s0,0,.1-.1.05,0,.1-.1c.21,0,.32-.25.48-.35a1.32,1.32,0,0,1,.57-.5.7.7,0,0,1-.36.41c-.84.9-1.73,1.8-2.62,2.7-.53.6-1,1.16-1.63,1.7a21.08,21.08,0,0,1-2.56,2.45,3.33,3.33,0,0,1-.73.49,1.23,1.23,0,0,1-1.37-.21l-.26-.17A1.3,1.3,0,0,1,70,49.15a4.5,4.5,0,0,1,.16-1.2,37.27,37.27,0,0,1,1.57-4.68c.16-.56.37-1.08.58-1.64a1,1,0,0,0,.1-.36.16.16,0,0,0,0-.21c-.21-.06-.21-.22-.21-.43V40.3l1-.16v0l-1,.09v-.09s.32,0,.32.09h0a1.17,1.17,0,0,1-.2.29.1.1,0,0,1-.1.09l-.1.14h.1c-.05,0-.05,0-.1.09A13.41,13.41,0,0,1,68,44.19a4.18,4.18,0,0,1-1.14.4A1.56,1.56,0,0,1,66,44.5a2.15,2.15,0,0,1-1.19-1.23.69.69,0,0,1,0-.55,3.74,3.74,0,0,1,.3-1.13c.2-.38.4-.72.59-1a8.75,8.75,0,0,1,2.09-2,4.55,4.55,0,0,1,2.88-.77,3.18,3.18,0,0,1,.89.24c.3.11.35.11.6-.17.35-.53.75-1,1.09-1.54v0c.74-.75,1.38-1.65,2.17-2.35a2.33,2.33,0,0,1,.51-.48.43.43,0,0,1,.6,0,3.32,3.32,0,0,1,.32.24.87.87,0,0,1,.37,1.08,10.77,10.77,0,0,1-.74,1.8,1.8,1.8,0,0,0-.19.36l.14-.17a.52.52,0,0,1-.18.4v.1a3.89,3.89,0,0,1-.23.62l0,.18.22.15a.29.29,0,0,1-.09.17,1.58,1.58,0,0,1-.09.32,1.37,1.37,0,0,0-.36.84,1.13,1.13,0,0,0-.32.71.23.23,0,0,0-.09.18v0a3.56,3.56,0,0,0-.35.79,1,1,0,0,0-.21.54c-.1.09-.1.19-.15.34h0a1,1,0,0,0-.25.54c0,.05,0,.15-.1.19a.7.7,0,0,0-.25.39l-.76,2A1.58,1.58,0,0,0,73,46a5.7,5.7,0,0,0-.65,2,1.62,1.62,0,0,0-.2.85h0c.25.21.25.21.35.12l.45-.33c.81-.82,1.66-1.69,2.52-2.5S76.89,44.7,77.65,44s1.66-1.58,2.51-2.35,1.57-1.49,2.42-2.15a1,1,0,0,0,.2-.14c.3-.24.36-.24.66,0S83.69,39.72,83.49,39.91ZM70,40.52l.94-1.15a4.88,4.88,0,0,0,.4-.53s0-.15-.1-.2H71a2.72,2.72,0,0,0-1.24.24,6.34,6.34,0,0,0-1.29.74c-.15.09-.3.24-.5.23.1-.2.35-.29.45-.48a.37.37,0,0,0,.29-.23.66.66,0,0,0-.34.18,3.54,3.54,0,0,0-1.39,1.38c-.15,0-.25.23-.3.38a.48.48,0,0,0,.3-.38,1.71,1.71,0,0,0,.39-.33,1.87,1.87,0,0,1,.5-.43c0,.2-.15.34-.25.49a4,4,0,0,0-1,1.24,3.84,3.84,0,0,0-.5,1.46c-.05.2.1.3.3.26a4.08,4.08,0,0,0,.94-.5A17.49,17.49,0,0,0,70,40.52Zm-3.58.84a.42.42,0,0,0,.25-.24C66.54,41.16,66.49,41.26,66.39,41.36Zm.15-1.24h-.36V40h0v.1l.66-.09s0-.1.1-.1h.24V40h-1v-.09s.51,0,.46.09A.1.1,0,0,0,66.54,40.12Zm.54-.23h.1v0C67.13,39.84,67.13,39.89,67.08,39.89Zm0-.1h.1v.1a.09.09,0,0,0,.1-.09h-.1V39.7A.1.1,0,0,1,67.08,39.79Zm0-.09h.05v-.1S67.13,39.65,67.13,39.7Zm.05.1.1-.09a1.5,1.5,0,0,0,.64-.72s0-.05.1-.09a.29.29,0,0,0,.2-.09.18.18,0,0,0-.2.09l-.15.09a1.21,1.21,0,0,0-.69.61s0,0,.1.11h-.1Zm3,2v.05l-.41,0h-.1s.51-.14.51-.14v.1s-.36,0-.31-.1.1,0,.1-.09h-.1s.1,0,.1-.09,0,0,0,.1,0-.05,0-.1H70a.56.56,0,0,1,.21-.09v.09s0-.09,0-.09a.83.83,0,0,0,.4-.53h-.1a3.63,3.63,0,0,1,.67-.1v.1s-.47,0-.42-.09l.1-.1h-.1s.42-.14.42-.14v.1s-.27,0-.22-.1a.38.38,0,0,0,.2-.29l.1-.09h-.08v.1h-.12s.1-.1.1-.15,1-.09,1-.09v.1a4.4,4.4,0,0,1-.77-.09h.77v-.2c-.82,0-.82,0-.77-.09h-.23v.2s.52-.19.52-.29h-.1c.05-.05-.42-.1-.42-.1v0l.67,0h-.67v-.24c.37.09.28.23.23.43a.24.24,0,0,0-.15.09,1.27,1.27,0,0,0-.35.38.11.11,0,0,1-.1.1,7.08,7.08,0,0,0-.65.71,11.93,11.93,0,0,0-1,1.09c.15,0,.3-.13.45-.17A2.59,2.59,0,0,1,70.18,41.79Zm-.56,1a.25.25,0,0,0-.25.14A.41.41,0,0,0,69.62,42.78Zm3-3a.09.09,0,0,0,0-.15s-.1,0-.1,0l-.2.19a28.94,28.94,0,0,1-2,2.19l-.25.28c0,.05,0,.05-.09.1s-.15.09-.2.24c.1,0,.2-.09.24-.19l.1-.09a1.69,1.69,0,0,0,.45-.33c.7-.67,1.34-1.43,2-2.19C72.6,39.79,72.6,39.79,72.6,39.74Zm-2.42,1.81v.1h-.1S70.13,41.6,70.18,41.55Zm1-.9v.1h-.1A.11.11,0,0,1,71.18,40.65Zm0-.34v.2h-.1a.18.18,0,0,1,0-.15ZM71,40.22h0c0,.05,0,.05-.1.09S71,40.26,71,40.22Zm.84-1.06H72a.11.11,0,0,1,.1-.1C71.9,39,71.85,39,71.85,39.16Zm.33,1.55h.1a.17.17,0,0,1-.1,0Zm1.41-2.31a6.87,6.87,0,0,0,.7-.91h-.05l-.15.15c0-.05,0-.05.1-.05a.48.48,0,0,1-.25.19l-.1.14s0,.05.34.1v0l-.54.14c0,.1,0,.2-.1.24l-.2.19a0,0,0,0,1,0,0,.34.34,0,0,0-.11.34V39c-.09,0,0,0,0,0A1.79,1.79,0,0,0,73.59,38.4Zm-.45,7.15a.83.83,0,0,0,.2-.48C73.19,45.21,73.19,45.36,73.14,45.55Zm1.39-8-1.14,1.53a1,1,0,0,0,0,.84c0,.2,0,.4.1.6,0,0,0,.14.1.15s.1-.09.1-.14C73.79,40.24,74.83,37.76,74.53,37.55Zm-.35,6.05v0S74.23,43.61,74.18,43.6Zm.06-6.12c0,.05,0,.05,0,.1S74.19,37.53,74.24,37.48ZM74.39,36c.09,0,.24-.09.29-.24l.1-.14a.33.33,0,0,0,.3-.19s0-.1.1-.14v.1s0-.1.1-.15a.42.42,0,0,0,.3-.28l.1-.15a.17.17,0,0,0-.1,0,.18.18,0,0,1,0-.15h.65v-.1c-.6,0-.6.05-.65.1a.92.92,0,0,0-.45.42.78.78,0,0,0-.35.44s-.1.09-.1.14ZM75,41a.89.89,0,0,0-.25.48A.89.89,0,0,0,75,41Zm.2-5.83s0,0,.1,0,0,0-.1,0Zm0,6.18v-.05h0A0,0,0,0,0,75.18,41.38Zm.35-1.61a.34.34,0,0,0-.1.29C75.48,40,75.48,39.86,75.53,39.77Zm.1-5.2a.41.41,0,0,0,.3-.28.14.14,0,0,0,.09,0l0,0c0-.05,0-.05-.09,0s0,.05,0,.1A1.64,1.64,0,0,0,75.63,34.57Zm.55,4.27s-.05,0-.1.1,0,.1,0,.1l.05,0Zm1,6.29A9,9,0,0,0,76,46.32c-.09,0-.09.14-.14.24a11.06,11.06,0,0,0,1.24-1.23A.26.26,0,0,0,77.22,45.13ZM77,46.21s0,0-.1.1a2.85,2.85,0,0,0-.94,1,3.54,3.54,0,0,0,.94-1C77,46.26,77,46.26,77,46.21Zm-.75-8.15a.62.62,0,0,0-.2.49A.83.83,0,0,0,76.27,38.06Zm-.09.32a.3.3,0,0,1-.05-.2h.05Zm.94,7.69-.1.09A.1.1,0,0,0,77.12,46.07Zm.1-.1c0,.05,0,.05,0,.1S77.22,46,77.22,46Zm1.88-1.85c-.1,0-.1.05-.15.1l-.09.09s0,0-.1.1-.1,0-.1.09l-.1.1a6.57,6.57,0,0,0-1.24,1.23.18.18,0,0,0,0,.15,5.67,5.67,0,0,0,1.29-1.34s.1,0,.1-.09l.1-.09.15-.15.09-.09S79.05,44.17,79.1,44.12Zm-1.29.44s0,0,0,0Zm.2-.19a1.28,1.28,0,0,0,.75-.71A2.68,2.68,0,0,0,78,44.37ZM80,42.53a5.1,5.1,0,0,0-1,.9A1.85,1.85,0,0,0,80,42.53Zm.13.46c0-.05,0-.1.1-.14v0C80.13,42.89,80.13,42.94,80.08,43Zm.41-.14a7.34,7.34,0,0,1,1-.9A1.86,1.86,0,0,1,80.49,42.85ZM81.69,41a2.9,2.9,0,0,0-1,.84,1,1,0,0,0,.5-.27Zm-.1.83s-.1,0-.1.1A.11.11,0,0,1,81.59,41.85Zm.44-.52h.1a1,1,0,0,1-.54.48Zm.15,0v-.1h.1A.1.1,0,0,0,82.18,41.33Zm0-.14v0h.1S82.23,41.19,82.18,41.19Zm0-.19h.1s0,.1-.1.1Zm.95-1.36a2.43,2.43,0,0,0-.55.48C82.93,40,82.93,40,83.13,39.64Z"></path><path class="cls-1" d="M155.22,18.17a4.72,4.72,0,0,1-.36.86,5.64,5.64,0,0,1-1.39,1.79.6.6,0,0,1-.36.17c-.05,0,0-.09.1-.23s-.31.18-.36.22a8.18,8.18,0,0,1-1,.74c-1,.69-2.11,1.32-3.19,2-.15.09-.46.56-.46.32V23c0-.19-.36.13-.46.32s.05,0,.15,0a3.19,3.19,0,0,0-.46.32c-.31.19-.72.17-1,.45h.05c.56,0-.92.4-1.43.62a.46.46,0,0,0-.26.18c-.56,1-2.35,1-3.43,1.46-.71.3-1.43.57-2.15.83s-1.43.47-2.09.73-1.44.52-2.15.83a3.76,3.76,0,0,0-.67.27,12.65,12.65,0,0,1-2.56.91,3.63,3.63,0,0,1-.71.16,21.31,21.31,0,0,0-2.36.73,2.46,2.46,0,0,1-.56.21,9.22,9.22,0,0,0-2,.7c-.41.17-.77.21-1.18.38s-1.13.25-1.69.47c-.82.3-1.74.55-2.66.81-.72.21-1.48.27-2.2.49l-1,.25a5.83,5.83,0,0,1-1.18.34.41.41,0,0,0-.25.08c-.06.05,0,.15,0,.15l.87.13c1.69.31,3.27.52,4.91.83,1,.19,1.94.47,2.91.61a4.94,4.94,0,0,1,1.28.39c1.18.53,2.46.73,3.64,1.22a21.77,21.77,0,0,1,3.17,1.58,9.12,9.12,0,0,1,3.48,3.82,5,5,0,0,1,.61,2.3,2.22,2.22,0,0,1-.1,1c-.05.09,0,.24,0,.33,0,.87-.67,1.53-1.08,2.28a.48.48,0,0,1-.25.19c-.31.13.51-.56.51-1,0-.05.1-.09.1-.19s.11-.09-.05-.15c-.82-.27-.87,1.32-1.43,2-.41.46-.77.89-1.23,1.35a5.27,5.27,0,0,0,.72-.41,1.15,1.15,0,0,1,.3-.22c-.05.09,0,0,.06,0,.66-.27-1.18,1.16-1.8,1.67-.4.32-.92.73-1.43,1.1-.2.13-3.12,2.14-4.35,2.82-.41.22-1.38.81-1.48.86a2.08,2.08,0,0,0-.26.08,8.31,8.31,0,0,1-1.94,1.13c-.87.45-1.84.85-2.61,1.3a21.42,21.42,0,0,1-2.1,1c-.1,0-.2.13-.41.22l-1.58.71c-.77.36-1.64.71-2.51,1.06-.46.17-.87.45-1.43.62a12.45,12.45,0,0,0-1.9.84c-.66.31-1.22.48-1.94.74a10,10,0,0,0-1.12.49,22,22,0,0,1-2.56.86,3.37,3.37,0,0,0-.82.55V66.4s.7.36.7.6.3.23.3.23v0s-.4.28-.45.33-.35.26-.35.5-.15.28-.3.41a16,16,0,0,1,1.35-2.37c0,.19-.1.23-.2.32s0,.19,0,.28-.3.46-.44.69a2.68,2.68,0,0,1-.5.73l-.1.14c-.4.36.86-1.23.56-.82-.54.73-.94,1.42-1.39,2.15s-2.13,1.1-2.13,1.1v0s-.05,0-.05,0c-.2,0-.35,0-.25-.16.64-1,1.39-2,2-3.09.44-.78-.56.49.18-.18l.2-.18c.1-.09-.1.23-.1.41s0,.1.1.15.25-.32.34-.6c0,0-.14-.19-.19-.28s0-.24.1-.28l-1,1.72c.25-.51.49-1,.79-1.47.1-.18-.25,0-.35,0a2.3,2.3,0,0,1-.39.08,19.72,19.72,0,0,0-2.23.7,10.93,10.93,0,0,0-1.08.33,18.51,18.51,0,0,1-4.3,1c-.84.15-1.83.34-2.77.44a33,33,0,0,1-3.66.27c-.79,0-1.48-.06-2.23-.09a10.75,10.75,0,0,1-1.18-.14,13.84,13.84,0,0,1-2-.46A10.7,10.7,0,0,1,79,66.35a6,6,0,0,1-1.24-1.68,11.82,11.82,0,0,1-.49-1.38,3.43,3.43,0,0,1,0-1v-.2s0-.09,0-.09l0,0v.14a6.48,6.48,0,0,1,0-1.31,11,11,0,0,1,1-2.58,2.93,2.93,0,0,0-.1.65s0,0,0,.09,0,0,0,0c.4-.69.89-1.23,1.34-1.92.15-.23.89-.57.59-.58l.2-.13s-.15,0-.1-.15.3-.22.4-.36,0-.09,0-.14-.2.09-.3.18A15.85,15.85,0,0,0,79,57.07a11.53,11.53,0,0,1,1.49-1.58l.15-.08S80.85,55,81,55a9.39,9.39,0,0,0,1.19-.84h0c0-.09.2,0,.3,0s.2-.18.25-.22.2-.09.3-.18.1-.09,0-.19a.17.17,0,0,0-.1-.05c.3-.22.59-.49.94-.71a21,21,0,0,1,2.92-1.66c.4-.22.8-.39,1.14-.56a26.61,26.61,0,0,1,3.37-1.23,39.32,39.32,0,0,1,3.92-1c.4-.08.84-.11,1.24-.18a20.48,20.48,0,0,1,5.25,0,9.56,9.56,0,0,1,3.07.77,6.23,6.23,0,0,1,1.84,1.05,1,1,0,0,0,.35.29c.2.06.2-.22.3-.36a12.87,12.87,0,0,0,1.14-2.48c.39-.93.84-1.8,1.28-2.72s.65-1.52,1-2.3c.23-.47.46-1.13.69-1.69a5.88,5.88,0,0,1,.58-1c.54-.85.73-1.71,1.21-2.56a1.33,1.33,0,0,0,.15-.6c0-.05,0-.05-.1-.05a9.48,9.48,0,0,0-2.38-.1l-.74.11c-1.59.21-3.17.57-4.71.88a28.83,28.83,0,0,1-3.27.43,30.41,30.41,0,0,1-4.11.25,6.85,6.85,0,0,1-1.74-.17,1.42,1.42,0,0,1-.89-.64c-.15-.2-.2-.43-.4-.58s0-.66.35-.83c.1,0,.2,0,.3-.08a2.65,2.65,0,0,1,1.19-.38c.74-.15,1.43-.26,2.13-.38.94-.14,1.93-.2,2.77-.3.6-.07,1.14,0,1.69-.07.74,0,1.49-.08,2.23-.1s1.39,0,2,0a11.26,11.26,0,0,1,1.74.07,4.6,4.6,0,0,0,1.93-.25,30.47,30.47,0,0,1,3.07-.71.74.74,0,0,0,.6-.45c.1-.18.2-.18.29-.27s0,.19,0,.33.29-.32.39-.45h0a7.32,7.32,0,0,1,.45-.88s0,.05-.1.05.15-.42.3-.55c-.1,0,0-.19.14-.32-.09,0,.2-.37.3-.56a1.17,1.17,0,0,1,.15-.32c-.15.14,0-.32.2-.5,0-.05.1-.24.25-.32s0,.23-.2.32v.21a.42.42,0,0,0-.14.09L117,30a1.62,1.62,0,0,0-.19.35c.09-.13-.1.36-.29.53,0,.09-.05.27-.14.31s0,.18,0,.27h0c.66,0,.62-1.05.76-1.59.09-.31.38-.52.38-.84,0,.05,0,0-.1,0a.28.28,0,0,1-.14.22c-.09,0,.1-.18.14-.22h0c-.15,0,0-.23.23-.35a.31.31,0,0,1,.1-.27s.1-.18.14-.22c-.14-.05,0-.31.15-.49.19-.35.47-.65.47-1,0,0,.24-.12.14-.21l0-.05c0-.05-.15,0-.15,0a1.49,1.49,0,0,0,.05.22c0,.14-.19.13-.24.18l-.28.3A.14.14,0,0,0,118,27c.38-.75,1.14-1.44,1.14-2.34,0,0,.09,0,.14,0a.28.28,0,0,1,.43.06,3.3,3.3,0,0,1,.33.6,1,1,0,0,1-.09.81c-.24.49-.34,1-.53,1.47,0,.13-.28.21-.28.39v.09a.37.37,0,0,1,0,.6,6.1,6.1,0,0,1-.44.64c-.7.87-.7,2.09-1.35,3-.1.14-.24.27-.1.52,0,.09.15-.23.25-.32s.1-.23.2-.37a3.12,3.12,0,0,1,.35-.74c.15-.18-.15.47-.3.69.15-.13-.1.38-.25.6s.25,0,.35,0a5.31,5.31,0,0,0,1.59-.41,4.91,4.91,0,0,1,1.34-.41c.05,0,.15-.09.2-.09a1.07,1.07,0,0,0,.65-.11,1.8,1.8,0,0,1,.79-.2,4.9,4.9,0,0,0,.7-.25c.74-.26,1.54-.5,2.28-.71s1.29-.42,1.94-.58,1-.38,1.64-.54a9.41,9.41,0,0,0,1-.34c.4-.17.79-.2,1.14-.37.1,0,.25,0,.4-.08a.46.46,0,0,0,.15,0L133,28l1.39-.55a19.4,19.4,0,0,1,2-.72c.54-.16,1-.47,1.54-.64a2.32,2.32,0,0,0,.69-.25c0-.05.1-.14.2-.13,1.29.05,2.33-.94,3.58-1.41a29.25,29.25,0,0,0,4.17-1.89c.4-.22.74-.39,1.14-.57s.7-.44,1.14-.65a7.15,7.15,0,0,0,1.2-.66,3.21,3.21,0,0,1,.64-.44l.6-.31a3.25,3.25,0,0,0-.4.36,15.32,15.32,0,0,0-1.49,1c-.05,0-.2.08-.2.17.05-.18.45-.16.6-.16s-.05.09-.1.14a.3.3,0,0,0-.1.18,1,1,0,0,0,.45-.31c.14-.23.49-.26.69-.49s.4-.17.6-.35.34-.22.39-.4.25-.09.35-.22,0-.05,0-.1.15-.27.25-.41c.35-.46.45-.31.55-.68s-.3.27-.45.4-.05.19-.15.28a1.38,1.38,0,0,1-.4.17s0,0-.1,0a10.9,10.9,0,0,0,1.25-1.36l.69-.95a.63.63,0,0,0,.05-.66,3.17,3.17,0,0,0-1-1.31,9.89,9.89,0,0,0-2.34-1.37c-1.39-.48-2.78-1.1-4.27-1.49a33.21,33.21,0,0,0-4.87-.81c-.74-.08-1.54-.21-2.33-.29-.55-.07-1.14,0-1.79-.07-1,0-2,0-2.93-.07-.3,0-.64.11-.89.1a1.16,1.16,0,0,0-.4,0,5.64,5.64,0,0,1-1.79,0,9.65,9.65,0,0,0-1.19.14c-.35,0-.75.11-1.14.14s-.85.15-1.19.14-.75.11-1.15.09a2.21,2.21,0,0,0-.39.13s0-.05,0,0,0,0,.1,0c.29,0-.6.16-.9.15a3.51,3.51,0,0,0-1,.24,2.26,2.26,0,0,1-.8.15.44.44,0,0,0-.24.09,2.13,2.13,0,0,1-.55.12c-.1,0,0-.1-.15,0s-.45.12-.7.16-.39.17-.59.21l-.55.16c-.1.05-.2,0-.3,0l-.49.31c-.15.08-.3,0-.5.07s-.35.22-.55.21c0,0-.09,0-.14,0-1,0-1.79.78-2.69,1.25a11.55,11.55,0,0,0-1.73,1.15,4.78,4.78,0,0,0-.8.87.79.79,0,0,0-.1.88c.05.1,0,.14,0,.19s-.25-.34-.35-.48a.54.54,0,0,1,0-.61,4.7,4.7,0,0,1,1-1.23,11.43,11.43,0,0,1,1.59-1.2c.24-.18.54-.22.69-.49,0-.09.15,0,.2,0,.55,0,.84-.44,1.34-.65a.45.45,0,0,0,.2-.23.39.39,0,0,1,.2-.18c-.1-.09.94-.43,1.29-.41a.25.25,0,0,0,.2-.09c.3-.27.59-.21.94-.2h.15s-.59-.09-.59-.09V12s.1-.14.15-.18c.36-.62,1.34-.34,2-.56a.85.85,0,0,1,.67,0c.16.11.31.06.47-.08l-.06-.05c.06,0,.06-.14.11-.14a4.74,4.74,0,0,0,2-.5,1.29,1.29,0,0,1,.41,0c-.36-.35,1.08-.25,1.65-.22.1,0,.15,0,.2,0,.36-.33.77-.21,1.18-.25.67-.06,1.44-.13,2.16-.25a3.9,3.9,0,0,1,.77,0c0-.05.1.05.1.05a6.83,6.83,0,0,1,2-.16c.31,0,.67,0,1,0,.52,0,1.13,0,1.65,0l4.26.18c.57,0,1.08.14,1.65.21s1.18.1,1.74.22a6.39,6.39,0,0,1,1,.24c.62.17,1.29.24,1.95.37a19.58,19.58,0,0,1,3,1c.57.22,1.19.53,1.65.75a12.61,12.61,0,0,1,1.38.83,10.42,10.42,0,0,1,1.34,1.32c.15.15.1.34.21.49A4,4,0,0,1,155.22,18.17ZM78.8,57.55c-.15.23-.25.46-.39.65a4,4,0,0,1,.69-1.1A3.51,3.51,0,0,1,78.8,57.55Zm27.34,5.12a.41.41,0,0,1,0-.33s-.1,0-.15-.05c-.55-.54.79-1.33.79-2.13,0,0,.1-.09.15-.14.3-.27-.2.75-.35,1.07-.05.09.2,0,.3,0s-.25-.34.15-.42c.2,0-.15-.34.05-.52,0,0,0,.05.1.15s0-.09,0-.14c0-.28.2-.28.2-.51s.25-.18,0-.33,0-.33.2-.36l.09-.14a.89.89,0,0,1,0-.61c0-.1,0-.19.1-.33s0,0,.1.06h0c.15,0,0-.24,0-.33a1.48,1.48,0,0,1,0-.47c.15-.47.2-1,.35-1.49a7,7,0,0,0,.1-1c.15-1.12-.5,2.14-.8,3.26a6.35,6.35,0,0,1-.39,1.25c0,.09,0,.33-.25.41s.1-.32.15-.46a17,17,0,0,0,.59-2.09c.15-.61.25-1.12.35-1.68a7.38,7.38,0,0,0,0-1.5c0-.05,0-.1-.1-.19s-.1.09-.1.09c-.25.46-.39.87-.59,1.29a2.76,2.76,0,0,1-.65,1,.85.85,0,0,1-.3.6c-.2,0-.2.46-.34.65-.45.54-.6.49-1.15.28-.25-.11-.44-.3-.74-.41-.15-.05.15-.18.2-.27s.11-.21.15-.3c.26-.59.73-1.52,1-2.08.5-.92.88-1.92,1.4-2.87a1,1,0,0,0,.1-.51c0-.15-.2-.2-.35-.25a3,3,0,0,1-.84-.46,5.25,5.25,0,0,0-2.78-.77,14.29,14.29,0,0,0-4-.17c-.54.07-1.09.05-1.69.12a20.82,20.82,0,0,0-2.18.42l-1,.24c-.6.17-1.25.37-1.84.58s-1.54.22-2,.67c0,.05-.15,0-.25.09-.69.3-1.34.6-1.93.9a2,2,0,0,1-1,.33s-.2.14-.25.18h.15s-.15.09-.15.09l-.09.13c-.1.09,0-.42,0-.32,0-.14-.19.13-.24.17l-.25.23h0v0c-.2.18-.55.12-.55.4,0,.05-.1.05-.2.09h.15c.2,0-.25.13-.39.26s0-.14.19-.27c-.24.13-.49.17-.59.35-.1,0-.15,0-.1,0s0,0,0,.1c-.15.18-.4.08-.6.21-.64.44-1.14.94-1.74,1.38a9.11,9.11,0,0,0-2,2.18c-.1.13,0,.23-.15.37s-.25.27-.25.41-.1.14-.15.18H80c.2,0-.1.33-.15.42a7.78,7.78,0,0,0-.89,2.64,4.75,4.75,0,0,0,1.24,3.86,5,5,0,0,0,2,1.4,12.9,12.9,0,0,0,4.56,1,35.36,35.36,0,0,0,7.4-.78c.45-.07.9-.24,1.4-.32a22.78,22.78,0,0,0,3.17-.85l2.49-.74c.54-.17,1.09-.33,1.69-.54a15.55,15.55,0,0,1,1.73-.68,1.12,1.12,0,0,0,.3-.13c.1-.09.1-.19.2-.23s.1-.09.25-.08c-.15,0,.1-.23,0-.38a.5.5,0,0,1,0-.28c0-.28.25-.46.4-.64s0,.28-.2.46.2-.09.25-.13a.17.17,0,0,1,.1-.18C106.14,62.77,106.1,62.72,106.14,62.67Zm-27-3.62c-.05,0,0,0,0,.09V59C79.13,59,79.18,59.05,79.18,59.05Zm1-2.61h0s.05.1,0,.05Zm.4-.32c.15-.08.3-.17.3-.31,0,0-.1,0-.15,0A2.44,2.44,0,0,0,80.59,56.12Zm.25-.74a.53.53,0,0,0,0,.14s.1,0,.2,0c-.2,0,.3-.13.4-.22s0,0,0,.1a3,3,0,0,1,.49-.41,1.87,1.87,0,0,1-.44.27c-.2.08.24-.32.39-.5A3.22,3.22,0,0,0,80.84,55.38Zm.3.11s-.1.09-.15.18c.1-.09.2-.08.25-.13A.15.15,0,0,1,81.14,55.49Zm.29.62c0-.09-.09.19-.14.23S81.43,56.3,81.43,56.11Zm-.09-.66a0,0,0,0,0,0,0A0,0,0,0,1,81.34,55.45Zm-.16,1.41h0l0,0Zm.65-2.19s.15,0,.3,0a.19.19,0,0,0-.1-.19C82,54.59,81.83,54.53,81.83,54.67Zm.2-.27c.1,0,.3.06.3.1a.83.83,0,0,1,0-.32A.84.84,0,0,0,82,54.4Zm.8.5c.14-.23-.35.32-.55.5S82.63,55.22,82.83,54.9Zm.24-1.45-.74.68C82,54.07,82.73,53.44,83.07,53.45Zm-.69,1.06c.15-.14.35-.22.45-.36h-.1A2.34,2.34,0,0,1,82.38,54.51Zm.59-.64a2.35,2.35,0,0,0,0,.24s.19-.09.24-.23C83.17,53.93,83,53.88,83,53.87Zm.2,0c0-.14.15-.09,0-.18Zm.5.45s0,0,0,0l0,0s0,0,0,0Zm0-1.18h0s0-.09,0-.14S83.67,53.15,83.72,53.15Zm.2-.22s0,0-.1,0l.35.06C84.17,52.89,84,52.88,83.92,52.93Zm.26.15v0c0,.05,0,.05-.05.05h.05l0,0C84.28,53.08,84.23,53.08,84.18,53.08Zm0-.32c0,.05,0,0,0,0s0-.1,0,0v.09Zm0,1.51v-.05s0,0,0-.09a.3.3,0,0,0,.2,0s-.05.1-.1.09,0,0-.15,0Zm1.18-1.8a.18.18,0,0,0,.1,0c.05,0,0,0,0,0h0s0,.09,0,.09-.15,0-.2.13S85.31,52.51,85.36,52.47Zm0,1.32s0,0,0-.1.25-.08.35-.08S85.51,53.79,85.41,53.79Zm.59-.5,0,0h.25c.2,0-.25.18-.39.31S86,53.43,86,53.29Zm0-1.22s.1-.09.1-.14.05,0,.05,0v0S85.93,52.16,86,52.07Zm.42-.26s.1,0,.15,0,0-.05-.1-.1-.15,0-.25,0h0C86.1,51.65,86.4,51.76,86.45,51.81Zm1.14-.71,0,0a.5.5,0,0,0,.15,0s-.15,0-.15,0S87.59,51.1,87.59,51.1Zm.75-.15.1-.05h0Zm.45-.27h0s0,0,.09,0,0,0,0,0S88.84,50.64,88.79,50.68Zm.69-.16a1.36,1.36,0,0,1,.35-.12.17.17,0,0,1,.1,0s0-.09,0-.09h-.1a.33.33,0,0,0,0,.14c-.2,0-.3,0-.35.12a.28.28,0,0,0-.1-.05S89.48,50.52,89.48,50.52Zm.85-.43,0,0c.05,0,.09-.09.09-.09s0,0,0,0S90.28,50,90.33,50.09Zm1.24-.47a.46.46,0,0,0-.4.22C91.07,50,91.52,49.76,91.57,49.62Zm.34,0a.36.36,0,0,1,.2,0C92,49.5,92,49.5,91.91,49.59Zm.3,0h.05c.15,0,.3-.13.4-.17a3,3,0,0,1,.5-.17c-.25,0-.55.07-.9.15A.35.35,0,0,1,92.21,49.56ZM93.6,49l-.1.09a1,1,0,0,0,.4-.17A.49.49,0,0,0,93.6,49Zm.45-.07h0l0,0h0C94.15,49,94.05,48.93,94.05,48.93Zm.89-.11H95s0,0,0,0-.1-.05-.1,0S94.94,48.78,94.94,48.82ZM95.54,36l-.05,0s-.1.09,0,.1h0S95.59,36,95.54,36Zm.79,0s0,0-.1,0h0v0S96.23,36,96.33,36Zm.25-.22c0-.23-.29.08-.29.22S96.58,35.92,96.58,35.78Zm.55,12.69c0,.05,0,.05.05.05v-.05S97.13,48.47,97.13,48.47Zm1-13a.59.59,0,0,0-.39.17c.49,0,1-.23,1.54-.21,0,0,.14,0,.24-.18C99.71,34.83,98.57,35.44,98.12,35.42ZM102.23,70l0,0v0Zm0-.37h-.05l.05,0Zm.59-.86c0,.09,0,.23-.1.23h0l0,0C102.77,69.09,102.77,68.81,102.77,68.72Zm-2.59-20.34c0,.09,0-.1.1-.09s0-.1,0,0l0,0Zm-.07-13.25h0s0,0,0,0l0,0S100.11,35.13,100.11,35.13Zm3.3,32.53h-.1s0,0,0,0h.1S103.46,67.67,103.41,67.66Zm-1.23,1.51.15-.13s-.15,0-.15.09Zm.82-.77h-.1l0,0S103,68.4,103,68.4ZM102.39,35a0,0,0,0,0,0-.05s0,0-.09,0,0,0,.09,0Zm1,32.56s0,.09,0,.09S103.39,67.59,103.39,67.55Zm.25-.37s0,0,0,0a.05.05,0,0,0,0,0S103.64,67.23,103.64,67.18Zm.54-.09s-.1,0-.15.09.15,0,.15,0Zm0-.41c-.05,0-.05,0-.1,0h0s.15,0,.15,0Zm1-10.44c-.05,0,0,0,0,0ZM105,56c0-.1,0,0,0,.18C105,56.1,105,56.1,105,56Zm.44-.55,0,0-.05,0a.07.07,0,0,0,0,.09C105.37,55.5,105.47,55.46,105.42,55.41Zm.55-1.29s-.1,0-.1.09S106,54.07,106,54.12Zm.21.18s0,0,0,0ZM106,61.92a1.36,1.36,0,0,0,0,.42A.65.65,0,0,0,106,61.92Zm.15.62-.1,0,0,0s0,.09,0,.14,0,0,0,0A.09.09,0,0,1,106.12,62.54Zm0-.94s-.1.09-.1.14S106.17,61.69,106.17,61.6Zm.4-8.68s-.1,0-.1,0-.3.08-.2.08h0c.05,0,.1-.09.15-.09.25,0-.1.51-.3.69,0,0,.15,0,.15,0A1.15,1.15,0,0,0,106.57,52.92Zm-.35,8.49s0,.1,0,.19.15.15.2.2.1-.19.15-.28S106.32,61.42,106.22,61.41Zm0-4.84,0,0A0,0,0,0,1,106.22,56.57Zm9.53-20c-.49,0-.39.69-.59,1.06.2-.32-.15.6-.4,1h-.05s0,0-.1.09a9.12,9.12,0,0,1,.55-1.06s0-.19,0-.42v0s.28-.41.23-.56-.1.28-.2.47a.12.12,0,0,0,0,.09c0-.14-.15.32-.2.37a2.55,2.55,0,0,0-.79,1.84,3.7,3.7,0,0,1,.34-.41s.1,0,.15-.08c.4-.13-.49,1.53-1,2,0-.28.35-.45.2-.78s-.25.6-.3.83l0,.18c0-.09,0-.13,0-.18h.1l.51-.05V41c-.46,0-.51.1-.51.14a2.63,2.63,0,0,1-.8,1.9c-.05,0-.1.09-.14.09a.71.71,0,0,0,0-.43c-.09-.28-.29.32-.39.65.05-.1.2-.09.3-.13s0,0,0,0-.15.37-.25.55c-.25.56-.45,1-.7,1.52l-1.19,2.45c-.2.41-.35.83-.6,1.24a10.82,10.82,0,0,0-1,2.12.77.77,0,0,1-.15.28.42.42,0,0,0-.1.6,1.45,1.45,0,0,0,.2.39,2.32,2.32,0,0,1,.45,1.75s-.3,1.78-.35,2c-.15.7-.3,1.44-.5,2.14-.39,1.39-1,2.82-1.59,4.21-.15.37-.29.74-.39,1.06,0,.14,1.29-.27,1.78-.48a10,10,0,0,1,1.44-.6,11.25,11.25,0,0,0,1.15-.47l1.44-.65,2.13-.9a21.16,21.16,0,0,0,2.24-1.08A9.32,9.32,0,0,1,118,58.8c.79-.34,1.49-.83,2.23-1.13l.35-.13a7.32,7.32,0,0,0,.65-.44,24.55,24.55,0,0,1,2.53-1.35c.7-.35,1.29-.79,1.94-1.19.35-.22.74-.39,1-.57.7-.44,1.39-.93,2-1.37.3-.23.64-.4,1-.62a20.38,20.38,0,0,0,1.89-1.61,16.14,16.14,0,0,0,1.89-1.81c.39-.45.74-1,1.09-1.5a3,3,0,0,0,.45-.78,6.46,6.46,0,0,0,.44-2,1.37,1.37,0,0,0-.15-.75,1.31,1.31,0,0,0-.29-.39,12.21,12.21,0,0,0-2.24-1.93,23.6,23.6,0,0,0-3.28-1.54,37.08,37.08,0,0,0-3.87-1.24c-1.24-.38-2.53-.67-3.83-1-.74-.17-1.54-.3-2.33-.43L117,36.72A5.61,5.61,0,0,0,115.75,36.62ZM107.18,62v0s0,0,0,0ZM107,54.87s.1,0,.05,0l-.05,0c0-.05,0,0,0,0S107,54.87,107,54.87Zm0-2.59c0,.19.15-.32.25-.55S106.91,52,106.91,52.28Zm.3,8.94s-.1,0,0,0h0a0,0,0,0,0,.05-.05Zm1-7.51a5.18,5.18,0,0,1-1,0v-.05a9,9,0,0,1,1,.05Zm-.57,4.61a1.67,1.67,0,0,0-.1.42A1,1,0,0,0,107.61,58.32Zm.1-8.4h.05l-.05-.05S107.71,49.92,107.71,49.92Zm.47,10v-.33C108.13,59.73,108.18,59.88,108.18,60Zm-1-9.58v.14a5.41,5.41,0,0,0,1-.05v-.09Zm.58,9.11c0-.09.1-.13.1-.27A.31.31,0,0,0,107.76,59.5Zm.15-9.53a.59.59,0,0,0,.15,0s0,0,0-.1-.05.05-.05.05A.14.14,0,0,1,107.91,50Zm.27,8.52v0h0A0,0,0,0,0,108.18,58.49Zm0-9.12v.05s.1,0,.1-.09a.17.17,0,0,0-.1,0C108.13,49.28,108.18,49.33,108.18,49.37Zm-.05-.46.05.05v-.05Zm.05-.41v-.19C108.08,48.3,108.18,48.45,108.18,48.5Zm1-14s-.05,0-.05,0,.05,0,.05.05V34.5Zm-.48,13.77s0,0,0,0,0,0,.1-.13S108.8,48.17,108.7,48.27Zm.2-.51s0,0,0,.05h0c.25,0,.25-.32.3-.6A3.82,3.82,0,0,1,108.9,47.76Zm.28-.75v0s-.05,0-.1.09S109.18,47,109.18,47Zm.07-.51.1,0h0Zm.1.15c-.15.13,0,.28,0,.42A.58.58,0,0,0,109.35,46.65Zm.4-.22-.2,0S109.65,46.42,109.75,46.43Zm0,2.82s0,0,0-.09,0,0,0,0S109.7,49.25,109.75,49.25Zm.09-4c0-.05,0,0-.09.09S109.84,45.26,109.84,45.21Zm0,.94a2.14,2.14,0,0,0,0,.23C109.89,46.34,109.84,46.24,109.84,46.15Zm0-.14s0-.09,0-.14h0S109.89,46,109.89,46Zm.25-.88.1.1c.05.05.1,0,.25-.13s-.2-.11-.25-.11S110.09,45.08,110.14,45.13Zm.35-.69a0,0,0,0,1,.05.05c0,.14.1-.19,0-.24l0,0C110.49,44.16,110.49,44.35,110.49,44.44Zm-.36,3c0,.05.05,0,.05,0v0Zm1-.37.05,0v0Zm0-3.84.05.05v-.09S111.13,43.19,111.13,43.19Zm0-.84h.1s0,0,0,0S111.09,42.35,111.14,42.35Zm.39-.17c0-.14-.1.18-.2.27S111.58,42.37,111.53,42.18Zm-.35,3.52v0l1,0v-.05Zm.35-.51c0-.19,0,.09-.1.32C111.48,45.42,111.58,45.38,111.53,45.19Zm.3-3.56,0,0c.1.1.05-.19.05-.24s-.05,0-.05,0S111.83,41.53,111.83,41.63Zm.2,2.5s0-.05.1-.09S112.08,44,112,44.13Zm0-3.2s0,0,.1,0,0,0,0,0-.05-.05-.05,0S112.08,40.89,112.08,40.93Zm0-.7c.05,0,.05,0,.05,0s0-.1-.05-.1S112.13,40.18,112.13,40.23Zm.05-.6v-.05C112.13,39.63,112.18,39.63,112.18,39.63Zm.25.85c0,.19.1-.28.2-.56S112.38,40.24,112.43,40.48Zm-.3-1a.16.16,0,0,0,.05-.14v-.05l-.05.05S112.18,39.41,112.13,39.45Zm1.05,3.63v.09h-.05A.12.12,0,0,1,113.18,43.08Zm0-3.66h0s0-.05,0-.05Zm-.26-1.08c0-.19.2-.18.2-.32s0-.1.15-.14-.1,0-.1-.05,0,.14,0,.19S112.92,38.15,112.92,38.34Zm.35.2c0,.14-.2.23-.25.37S113.12,38.82,113.27,38.54Zm0,3-.25.37C112.92,42.1,113.12,41.82,113.32,41.5Zm.05-3.14s0,.09-.05.09.1-.09.1-.14a.42.42,0,0,0,0-.42C113.37,38,113.42,38.17,113.37,38.36Zm-.34-.85c0,.15,0-.28.15-.41V37c0,.09,0,.14-.05.18A.42.42,0,0,0,113,37.51Zm.59.1-.05,0a.24.24,0,0,0,.15-.09S113.67,37.57,113.62,37.61Zm0-.84c0-.19.2-.09.2-.27S113.67,36.72,113.67,36.77Zm.25.15c.1-.09.25-.22.25-.36S114.07,36.6,113.92,36.92Zm.74,2s0,0-.1,0l0,0c-.1.05,0-.18.1-.27s0,0,.1-.05l.05,0S114.76,38.84,114.66,38.93Zm1.94-8.57c.35-.74.74-1.47,1.09-2.16a10.62,10.62,0,0,1-.44,1.2,32.76,32.76,0,0,0-1.54,3.08c0,.14-.1.28-.25.32-.45.13.29-.83.54-1.24S116.4,30.77,116.6,30.36Zm-.8,2.41s0,0,0,0S115.8,32.77,115.8,32.77Zm.1-.09a1.65,1.65,0,0,1-.05.42c-.1.33.25-.41.35-.74a.17.17,0,0,0-.1,0A.94.94,0,0,0,115.9,32.68Zm.4-.69a.94.94,0,0,0,.2-.27c0,.05,0,0-.1.09Zm.88.22v-.14a.16.16,0,0,0-.05.14.87.87,0,0,1-.1.28C117.13,32.4,117.23,32.36,117.18,32.21Zm.21-.59c0-.1.1-.09.1-.28,0,.09-.2.08-.2.27a.47.47,0,0,1-.09.28C117.25,31.8,117.39,31.8,117.39,31.62Zm.1-.28c0-.14.25-.13.2-.28C117.64,31.2,117.49,31.2,117.49,31.34Zm.2-3.14a3.84,3.84,0,0,1,.55-1.11C118,27.46,117.89,27.83,117.69,28.2Zm.2.66s.1-.09.1-.13h0A.16.16,0,0,1,117.89,28.86Zm.34,1.41c0-.09,0-.05,0,0v.05C118.23,30.27,118.23,30.37,118.23,30.27ZM118,28.4c.05.05,0,.14,0,.23,0-.09.05-.14.1-.23S118,28.4,118,28.4Zm.19,0c0-.1,0-.14,0-.19Zm0,2.63v0h0S118.23,31,118.18,31Zm0-.37v0h1v.05A6.75,6.75,0,0,1,118.18,30.62Zm-.05-.41h.05v.09C118.18,30.39,118.13,30.21,118.13,30.21Zm.1-.09,0,0c0,.05,0,0-.1.05v-.1a1.23,1.23,0,0,1,.2-.36C118.33,29.89,118.38,30,118.23,30.12Zm.55-.37c0-.15.1-.23.25-.28S118.78,29.65,118.78,29.75Zm.2-3.66a0,0,0,0,0,0-.05h0s-.1,0,0,.05Zm0,3.29c0-.05-.1-.14,0-.14h0S119,29.33,119,29.38Zm.25-1.07s0,0,0-.09S119.28,28.26,119.28,28.31Zm.9-15.8v.05s0-.05,0-.09S120.18,12.46,120.18,12.51Zm2,44.71h-.05l.05.05Zm0-25.31h0V32S122.23,31.91,122.23,31.91Zm0,24.92s0,0-.1,0v0l0,.05S122.28,56.83,122.28,56.83Zm1-45.14,0,0v0Zm0,44.53s-.1-.1-.1-.06.05.15.05.1v0Zm.57-45h0a0,0,0,0,1,0,.05h0S123.8,11.25,123.8,11.25Zm0,20.3h-.1S123.85,31.6,123.85,31.55Zm.28-20.3c.05,0,.05,0,.05,0v0S124.18,11.3,124.13,11.25Zm.07.11h-.15s0,0,0,0S124.3,11.37,124.2,11.36Zm0,44.51-.05,0h.05Zm.61-.17c-.09.13.35-.08.45-.31S124.89,55.51,124.79,55.7Zm.6-24.74a0,0,0,0,0,0-.05c0,.05,0,.14-.1.14s.05,0,.05.05S125.39,31,125.39,31Zm.8-20a.19.19,0,0,0-.1,0,0,0,0,0,0,0,0h.1A.12.12,0,0,1,126.19,10.93Zm0,44v0s0,0,.1-.09,0,0,0,0S126.18,54.9,126.18,55Zm.15-44h-.1s0,.05.1.05S126.33,10.93,126.33,10.93Zm1.35,43c-.25.27-.6.3-1,.62,0,0,0,0-.1,0s0,.05,0,.05h.05s0-.09,0-.09a1.64,1.64,0,0,0,1-.53S127.68,53.94,127.68,53.89Zm-.5-23.47-.1,0h.1Zm0-19.72c0-.09-.1.05-.1.05h.1Zm1,19.34s0,0-.15,0,.1.05.1,0h.1C128.27,30.09,128.17,30,128.17,30Zm.2,23.55c-.1,0-.2,0-.2.13A.69.69,0,0,0,128.37,53.59Zm.3-43s0,0-.15,0h.2C128.77,10.61,128.67,10.56,128.67,10.56Zm.3,19.33a.24.24,0,0,1-.1-.06c-.15,0-.2,0-.25.18S128.82,30,129,29.89Zm-.25,23.39a.69.69,0,0,0,.2-.14C129,53.05,128.82,53.14,128.72,53.28Zm.49-23.62c0,.05-.09,0-.09.09a1,1,0,0,0,.49-.17C129.76,29.45,129.31,29.62,129.21,29.66Zm.8,22.92-.2,0a.39.39,0,0,0-.3.12C129.71,52.75,130,52.81,130,52.58Zm.17-23.08h-.05s.05.09.05.05ZM131,10.23c-.2,0-.34,0-.54,0a.28.28,0,0,0-.3.13c-.1.18.4,0,.64,0C130.85,10.37,130.9,10.28,131,10.23Zm-.54,41.9c-.3.59,1.09-.76,1.54-1.26C132.69,50.1,130.66,51.76,130.46,52.13Zm.29-22.88.3-.12A.29.29,0,0,0,130.75,29.25Zm.75-19a.37.37,0,0,0,.25.06C132,10.32,131.75,10.31,131.5,10.25Zm1.29,18.34s0,0,0,0a7.4,7.4,0,0,1-.89.25C132.29,28.85,132.74,28.87,132.79,28.59Zm-.66,21.86.05,0v0s-.1,0-.1,0ZM132.24,10l-.05.24c0,.09.15,0,.25,0S132.34,10.1,132.24,10Zm.94,40.51c-.84,0-.94,0-1,.09v.1a4.66,4.66,0,0,1,1-.14Zm-.74,1.6a.27.27,0,0,0-.05.19C132.39,52.49,132.44,52.16,132.44,52.11Zm.74-.08c0-.09-.1,0-.2,0,.05,0,.2.15.2,0Zm-1-2.12a.75.75,0,0,0,.2-.13c.15-.14-.25.08-.25.13V50Zm.51.38c0,.05.1-.09.15-.23S132.74,50.11,132.74,50.29Zm.15-21.84h0Zm.4,23-.3.27c-.15.13.25,0,.25-.08A.27.27,0,0,1,133.29,51.49Zm1.88-5c0-.19-.14.27-.24.46a4.4,4.4,0,0,0-.3.5c-.1.18-.25.27-.3.46s-.25.22-.35.36a1.19,1.19,0,0,1-.39.45c-.2.14-.2.28-.3.41s-.25.28-.3.46c-.1.42.94-.9,1.49-1.58A2.51,2.51,0,0,0,135.17,46.45Zm-1.54-36.29a.69.69,0,0,0-.4-.11s0,.09,0,.09v0c0,.14.3,0,.45,0S133.63,10.16,133.63,10.16Zm0,39.28a.45.45,0,0,0-.25.17C133.24,49.75,133.44,49.62,133.59,49.44Zm-.15,1.45c.05,0,.05,0,.05-.1A.17.17,0,0,0,133.44,50.89Zm.49-22.68a.67.67,0,0,0-.39.08C133.29,28.42,133.59,28.38,133.93,28.21Zm-.15,22.22c.2,0,.15-.13.25-.37S133.78,50.29,133.78,50.43Zm.5-1.86c-.1.09-.25.18-.25.27C134.13,48.75,134.28,48.67,134.28,48.57Zm.25-.46-.25.41a.34.34,0,0,0,.2-.08c.1-.09.1-.19.15-.28A.17.17,0,0,1,134.53,48.11Zm-.35,1.68v.05c0,.38.69-.77.84-1.28S134.18,49.37,134.18,49.79Zm1-22.09a2.18,2.18,0,0,1-.79.16,0,0,0,0,0-.05,0c.1,0,.25,0,.4,0A1.49,1.49,0,0,0,135.22,27.7Zm-.69-17.65c-.25,0,.4,0,.6,0S134.78,10,134.53,10.05Zm.05,40.55h-.05c0-.05.05,0,.1-.09S134.58,50.56,134.58,50.6Zm0-.09c.1-.09.2-.22.25-.22S134.78,50.38,134.63,50.51Zm.15-2.48-.05-.05s0,.05,0,.09ZM135,50a.35.35,0,0,1-.1.19.27.27,0,0,0,0-.19s.19-.32.39-.36S135.27,49.88,135,50Zm.15.19v0Zm.14-.55c-.15,0,.1-.23.3-.32S135.47,49.56,135.32,49.6Zm-.09-3.47,0-.05v.05Zm1-18.86c-.15,0-.3.13-.45.17a.62.62,0,0,1,.3,0s0-.09.2-.09S136.27,27.27,136.27,27.27Zm.79-.29c-.1.09-.3-.06-.4.22S137,27.07,137.06,27ZM137,10.06a10,10,0,0,0,1.2,0C138.6,10.08,137.36,10.07,137,10.06Zm2.21,16.33a2.17,2.17,0,0,1-.25-.05,1.68,1.68,0,0,0-.74.29v.14C138.18,27.15,138.77,26.57,139.17,26.39Zm0-16.3-.1,0h.1Zm1.16,15.57c-.4.17-.7.25-1,.38s-.4.12-.4.31a3.12,3.12,0,0,0,1.09-.47A.64.64,0,0,0,140.34,25.66Zm0-15.41a4.41,4.41,0,0,0-.84-.09c-.4,0,.79.22,1.58.12C141.38,10.24,140.59,10.25,140.39,10.25Zm.7,15.2h0Zm1.24-.6c-.1-.15-.35.17-.55.21a.35.35,0,0,0-.25.36c.35,0,.5-.21.7-.39S142.43,25,142.33,24.85Zm2-14.11c0-.14-.34,0-.54,0,0,0-.15-.1-.2-.1-.5,0-1-.23-1.44-.25-.1,0-.2-.05-.4-.06.2.2.4.16.55.21a5.4,5.4,0,0,0,1.49.2c.2,0,.39.07.54.07S144.36,10.79,144.36,10.74Zm-1.44,13.8s-.1.09-.2.18S142.92,24.59,142.92,24.54Zm.3-.08a.61.61,0,0,0-.25.08C143.07,24.55,143.17,24.6,143.22,24.46Zm.25-.08a.19.19,0,0,1-.1,0S143.47,24.47,143.47,24.38Zm.15-.14c-.05,0-.05.05-.1,0A.13.13,0,0,0,143.62,24.24Zm.2-.08a.12.12,0,0,0-.1,0C143.77,24.2,143.82,24.2,143.82,24.16Zm.25-.28h0C144,23.88,144.07,23.93,144.07,23.88Zm.79,0a3.06,3.06,0,0,1-.55.07c-.05,0-.05.14-.1.18A1,1,0,0,0,144.86,23.92Zm-.68-.25h0l0-.05Zm1-12.66a.11.11,0,0,0-.1-.1C145,11,145.06,11,145.16,11Zm0,12.36s0-.05,0-.05h0Zm.13-12.26c.1.19.25.05.44-.13S145.51,11,145.31,11.11ZM145.23,25c0-.05,0-.05,0-.05V25Zm.52-1.63c.3-.27.4,0,.5-.26S145.85,23.25,145.75,23.39Zm.15,1.37h-.05a.19.19,0,0,0-.1,0h.05S145.85,24.8,145.9,24.76Zm.28-1.74c0,.05.1,0,.1,0s0-.09-.05-.05l0,.05Zm-.13,1.7s.1.05.15.05a.66.66,0,0,1,.15-.27C146.45,24.36,146.25,24.59,146.05,24.72Zm.13-13.52s-.05,0-.05,0a0,0,0,0,0,0,.05s.1,0,.1,0Zm.57,11.34c.05-.14-.25.08-.2.13l0,.1C146.65,22.86,146.7,22.68,146.75,22.54Zm.05,1.74h-.1a0,0,0,0,0,.05.05h.05S146.8,24.28,146.8,24.28Zm.15-1.45a.24.24,0,0,0-.15.09C146.7,23,146.85,22.92,147,22.83Zm.84-.34h-.2c-.05,0,0,.05,0,.09S147.69,22.53,147.79,22.49Zm-.15-.39.05,0a0,0,0,0,0,.05,0,0,0,0,0,0-.05-.05C147.64,22.06,147.64,22.1,147.64,22.1Zm.8,0c-.2.09-.45.08-.55.31A1.31,1.31,0,0,0,148.44,22.09Zm-.35-.15h0l.05-.05C148.29,21.8,148.09,21.94,148.09,21.94Zm.35-.27.1,0c.05,0,0,0,0,0Zm.49.07c-.05,0-.1,0-.15.08S148.93,21.83,148.93,21.74Zm0-.24.1.05A.17.17,0,0,0,148.93,21.5Zm.15.05s0,0,.1-.13S149.08,21.51,149.08,21.55Zm.55.68c0-.18-.2.18-.25.23s-.2,0-.2.18.15-.14.2-.18S149.63,22.47,149.63,22.23Zm-.35-.48h.05a.24.24,0,0,0,.15-.09C149.38,21.66,149.28,21.66,149.28,21.75Zm1.29.05c-.1,0-.15,0-.2,0S150.42,21.89,150.57,21.8Zm.2-.27c.1-.09.4-.08.5-.36S150.92,21.3,150.77,21.53Zm1-2.12a3.39,3.39,0,0,1-.49.4A4.22,4.22,0,0,1,151.81,19.41Z"></path><path class="cls-1" d="M159,43.06a15,15,0,0,0-3.47,1.74c-.5.32-1.05.59-1.54.87-.9.65-1.94,1.15-2.88,1.76s-1.74,1.16-2.59,1.82c-.39.28-.79.61-1.19.94h-.05c-.59.42-1.19.79-1.79,1.16a25.76,25.76,0,0,1-3.08,1.7,4.55,4.55,0,0,1-1.83.47,2.5,2.5,0,0,1-2-.78,3.24,3.24,0,0,1-.8-2.9,12.82,12.82,0,0,1,1.3-3.76,20.41,20.41,0,0,1,1.83-2.94,1.37,1.37,0,0,0,.25-.48,2.43,2.43,0,0,1,1-1.15,2.5,2.5,0,0,0,.74-.71,15.77,15.77,0,0,1,2-1.64,8.18,8.18,0,0,1,1.09-.5,1.41,1.41,0,0,1,1.54.36c.69.72.74,1.32-.1,2.18A12.54,12.54,0,0,1,145.29,43a6.24,6.24,0,0,1-2.48,1,.81.81,0,0,0-.64.37,2.31,2.31,0,0,0-.4.53,24,24,0,0,0-1.49,2.76c-.05.09-.05.19-.1.29v.15a3.44,3.44,0,0,0-.4,1.22,7.44,7.44,0,0,0-.3,1.52,3,3,0,0,0,0,.94.3.3,0,0,0,.4.27,3.18,3.18,0,0,0,1-.31,13,13,0,0,0,2.09-1.1c1.19-.69,2.33-1.43,3.48-2.13,1.78-1.11,3.52-2.22,5.31-3.28,1.39-.83,2.78-1.66,4.22-2.4.35-.18.75-.36,1.15-.54a3.9,3.9,0,0,1,.69-.32.75.75,0,0,1,.75.23C158.75,42.46,159.05,42.67,159,43.06Zm-15.81-.69a1.5,1.5,0,0,0,.89-.41,6.89,6.89,0,0,0,.69-.52c.35-.28.65-.61,1-.94a.15.15,0,0,0,0-.2.1.1,0,0,0-.15,0,2.62,2.62,0,0,0-1.29.89h-.05a.1.1,0,0,1-.1.09v0A3.11,3.11,0,0,0,143.19,42.37Zm.57,8.32a.11.11,0,0,0-.1.1S143.71,50.74,143.76,50.69Zm.05,0a.36.36,0,0,0,.35-.18A.48.48,0,0,0,143.81,50.64ZM144,40.16h.15v-.1C144.13,40.07,144.08,40.12,144,40.16Zm13.39,3.05c-.15,0-.25.09-.35.23a.36.36,0,0,0-.3.09c-.09,0-.24,0-.34.13a24.83,24.83,0,0,0-2.88,1.71,3.91,3.91,0,0,0-1,.55c-.2.14-.44.23-.64.37A30.61,30.61,0,0,0,149.32,48l-.49.28c-1.14.79-2.29,1.58-3.43,2.32a1.71,1.71,0,0,0-.55.47.43.43,0,0,0-.39.24.94.94,0,0,0-.4.23.71.71,0,0,0,.4-.23.47.47,0,0,0,.39-.24,1.93,1.93,0,0,0,.75-.36c.74-.46,1.44-1,2.18-1.44.55-.37,1.05-.8,1.59-1.17,1.15-.64,2.19-1.34,3.28-2.09a2.63,2.63,0,0,0,.95-.6.81.81,0,0,0,.29-.13c.85-.46,1.74-1,2.59-1.48.15-.09.24-.14.29-.23l.3-.14C157.22,43.4,157.37,43.35,157.42,43.21ZM145,41.93c-.24.19-.54.33-.79.56a.65.65,0,0,0,.6-.22A.32.32,0,0,0,145,41.93ZM144,40h.15v.15s0-.1.1-.15l.15-.09a.9.9,0,0,0,.39-.23,2.84,2.84,0,0,0,.4-.23.18.18,0,0,1,.05-.15.15.15,0,0,1-.05-.1,2.08,2.08,0,0,0-.89.56l-.15.14Zm.18,1.09c.64-.42,1.19-.84,1.84-1.26A3.25,3.25,0,0,0,144.21,41.11Zm0-1.08v-.1h.1a.16.16,0,0,0,.05-.14l.1.15h-.1c0,.05-.05,0-.05.09Zm.18,10.29a.36.36,0,0,0,.35-.23A.55.55,0,0,0,144.36,50.32Zm.2-9a.17.17,0,0,1-.1,0h0Zm.29,1.5a.48.48,0,0,0-.34.18A.3.3,0,0,0,144.85,42.82Zm-.59,7.39a.76.76,0,0,1,.35-.09c.06-.1.16-.15.21-.25h.2l.16-.15h0a3.09,3.09,0,0,0,.62-.09h-.15s.1-.09.15-.09,0,0,0-.1l.2,0,.13-.09v.1l.11-.1h-.11v-.05l1-.09v.1s-.79-.05-.74-.1a1.11,1.11,0,0,1,.25-.09l.15-.14h-.1l-.56-.09v.09l.81-.09c.15,0,.19-.23.19-.23v-.1l.26,0,.74,0v-.05h-.64l.64-.23v0h0v0s-.15-.1-.1-.1l.15-.14a.46.46,0,0,0,.4-.23c.05,0,.1-.09.15-.09a1.05,1.05,0,0,0,.4-.23l.14-.14c.1,0,.15-.1.25-.09l.15-.14c.05-.05.1-.1.15-.1s.31-.05.31-.05v0l-.31,0c.1,0,.15,0,.25-.08l.15-.15c.15,0,.25-.13.4-.18l.14-.14a.94.94,0,0,0,.4-.23.24.24,0,0,1,.15-.09.36.36,0,0,0-.18-.06v-.08s0,0,.09,0a.53.53,0,0,0,.23-.08.25.25,0,0,1,.14-.09h-.14a.15.15,0,0,0,.05-.13s0,.09.09.09a.51.51,0,0,0,.24-.22H152c.14,0,.23-.13.37-.17l.14-.14a1,1,0,0,0,.23-.22c.05,0,.05,0,.05-.09l.09.1c.09-.09.19-.13.28-.22v-.2s.1,0,.1.11a1.69,1.69,0,0,1,.46-.24h-.05a2.26,2.26,0,0,1,.46-.24h-.05a2.47,2.47,0,0,0,.41-.24l.46-.23a2.61,2.61,0,0,1,.41-.24c.11-.1.21-.15.26-.25s.05-.05.05-.1l.1.11c.11-.1.21-.14.31-.24a.22.22,0,0,1,0-.16,4.44,4.44,0,0,1-.82.48c-.15,0-.31.09-.36.24a.64.64,0,0,0-.46.23,3.8,3.8,0,0,0-1.23.72.62.62,0,0,0-.41.24.73.73,0,0,0-.46.23,3,3,0,0,0-1,.62c-.15,0-.25.1-.41.24a1.21,1.21,0,0,0-.56.34,2.66,2.66,0,0,0-1,.62,1.28,1.28,0,0,0-.56.33,1.17,1.17,0,0,0-.56.34,1.33,1.33,0,0,0-.57.38,7.11,7.11,0,0,0-1.13.72,2.7,2.7,0,0,0-.71.48,1.84,1.84,0,0,0-.52.33,2.24,2.24,0,0,0-.56.39A.92.92,0,0,0,144.26,50.21Zm1.54-8.09a.19.19,0,0,0-.1,0,2.32,2.32,0,0,0-.7.52c-.05,0-.05.1-.1.09a.09.09,0,0,0,.1-.09,1,1,0,0,0,.7-.47C145.75,42.17,145.8,42.17,145.8,42.12Zm.3-.24a.11.11,0,0,0-.1.1C146.05,41.93,146.1,41.93,146.1,41.88Zm.29,7.19a.17.17,0,0,0,.05.1h-.1A.17.17,0,0,0,146.39,49.07Zm.79-.37v.15h-.1C147.13,48.8,147.18,48.75,147.18,48.7Zm1-.64v.09c-.05,0-.05,0-.1,0S148.13,48.05,148.18,48.06Zm-.05-.1c.05,0,.05,0,.1,0S148.18,48,148.13,48Zm.05-.18v-.1C148.23,47.74,148.23,47.74,148.18,47.78Zm1.1-.09a.15.15,0,0,0-.1,0v0S149.23,47.64,149.28,47.69Zm-.06-.48.1.11h-.14S149.22,47.26,149.22,47.21Zm1-.22v.1H150Zm.54-.7.09.1h-.14C150.72,46.34,150.72,46.34,150.72,46.29Zm1.88-1.16.1.1h-.15S152.6,45.18,152.6,45.13ZM156.23,43c.1,0,.2,0,.25-.09Zm.3-.09a.26.26,0,0,0,.19-.09A.2.2,0,0,0,156.53,42.92Zm.24-.13h.1l0,0c0-.05,0-.05-.1-.05A.17.17,0,0,1,156.77,42.79Zm.9.33a.19.19,0,0,0-.2.09A.36.36,0,0,1,157.67,43.12Z"></path><path class="cls-1" d="M177.32,4.69a11.13,11.13,0,0,1-.64,1.58c-.24.58-.54,1.15-.83,1.72l-.74,1.43a10.07,10.07,0,0,1-.53,1.1l-.44.86c-.59,1.1-1.18,2.14-1.67,3.24,0,.1-.05.15-.1.24s0,.15-.09.19-.1.15-.1.24V15a4.79,4.79,0,0,1,0,1.5.69.69,0,0,1-.15.2,1.92,1.92,0,0,0-.4.87c-.05.05-.05.15-.1.19s-.2.19-.29.34a17.92,17.92,0,0,1-1,1.55v.1c-.05.05-.1.15-.15.19a1.81,1.81,0,0,0-.45.88l-.1.1c-.25.53-.55,1.12-.85,1.7a.38.38,0,0,0-.1.2l-.15.19a1.2,1.2,0,0,0-.3.69,9,9,0,0,0-1.2,2.19l-.1.24a.38.38,0,0,0-.1.2l-.15.19h.05l-.15.24c-.1.15-.25.34-.35.49l-1.65,3.21a7.12,7.12,0,0,0-.5,1.08c-.05.05-.05.15-.1.19s-.15.3-.2.44l-.15.2c0,.14-.15.29-.2.44s-.05.14-.1.19,0,0,.1.06h-.1V33l0,.43h.05c-.05.1-.1.15-.1.2a.17.17,0,0,0,.1,0h.9v0s-1.45.77-1.6,1.16h0a.83.83,0,0,1-.15.24.38.38,0,0,1-.1.2l-.1.24a.41.41,0,0,0-.09.19,1.48,1.48,0,0,0-.25.34c-.35.83-.7,1.6-1.1,2.38,0,.09,0,.24-.09.34s-.05.15-.1.24h.1a.35.35,0,0,1-.1.19,2.06,2.06,0,0,0-.6,1,.22.22,0,0,0,0,.25.34.34,0,0,0,.1-.24c0,.1,0,.2,0,.3h-.05s-.1,0-.15.1l-.15.39c-.05.09-.1.14-.15.24l0,0a.15.15,0,0,1,.1,0h-.1a4.22,4.22,0,0,1-.25.48l-.1.25a1.75,1.75,0,0,0-.34.82,3.44,3.44,0,0,0-.5,1.37c-.2.14-.2.28-.25.53.05,0,.1,0,.15.06h-.23v0s-.27,1-.46,1.51a.3.3,0,0,0,0,.35l-.1.14a.58.58,0,0,0-.2.44,6.7,6.7,0,0,0-.55,1.71c-.05.09-.05.24-.1.34s-.59.44-.59.44v-.34a1.22,1.22,0,0,0-.1.34.92.92,0,0,0-.2.38,17.45,17.45,0,0,0-.53,2.22l-.15,1.11a4.52,4.52,0,0,0,0,1.42.54.54,0,0,0,.2.44.59.59,0,0,0,.29,0c.24-.19.54-.32.78-.51.54-.41,1.08-.88,1.62-1.34.93-.84,1.86-1.68,2.79-2.56.73-.6,1.42-1.31,2.1-2s1.13-1.07,1.71-1.58l2.65-2.28c.78-.65,1.56-1.3,2.34-1.9a.69.69,0,0,1,.2-.14.58.58,0,0,1,.88,0c.15.15.1.35-.1.49s-.68.6-1.07.88q-2.86,2.51-5.58,5.17l-1.47,1.45c-.59.56-1.12,1.12-1.71,1.63-1.08.93-2.11,1.91-3.28,2.79-.25.18-.54.36-.83.54a4.31,4.31,0,0,1-.79.31,2,2,0,0,1-2.2-1.41,5.6,5.6,0,0,1,0-2,18.68,18.68,0,0,1,.69-3.72l.88-3c.05-.29.15-.53.19-.77.2-.44.3-.87.49-1.3a9.68,9.68,0,0,0,.44-1.2c.3-.82.64-1.63.93-2.45.25-.57.44-1.15.74-1.72s.39-1,.63-1.44c.59-1.29,1.23-2.58,1.86-3.87.49-1,1-2,1.57-3,.24-.48.44-1,.68-1.43l1.13-2,.88-1.72c.39-.71.78-1.43,1.13-2.14L168,19.26c.64-1.1,1.17-2.24,1.81-3.39.29-.57.64-1.09.93-1.66l.59-1.05c.44-1,1-1.81,1.47-2.71,1-1.77,2.1-3.47,3.23-5.18.09-.09.14-.24.24-.33.29-.38.59-.71.83-1,.15,0,.2.06.25.16A1.34,1.34,0,0,1,177.32,4.69Zm-8.23,17.43c-.2.09-.25.29-.35.43-.49,1-1,1.94-1.54,2.85-.79,1.5-1.58,3-2.33,4.41-.84,1.69-1.74,3.39-2.58,5.13-.75,1.5-1.44,3-2.14,4.56-.79,1.8-1.54,3.65-2.18,5.55-.55,1.51-1.05,3-1.49,4.59l-.1.54a2,2,0,0,0-.2.73.22.22,0,0,0,0,.3v-.3a.83.83,0,0,0,.2-.73,2.26,2.26,0,0,0,.3-.73c.59-1.91,1.19-3.76,1.93-5.61.9-2.39,1.94-4.77,3-7.09.65-1.31,1.24-2.62,1.89-3.88l1.94-3.78,3.42-6.53A1.72,1.72,0,0,0,169.09,22.12ZM157.27,43.4c0-.1.2-.14.1-.29C157.32,43.2,157.32,43.3,157.27,43.4Zm.45-1.17a1,1,0,0,0,.24-.48C157.86,41.89,157.82,42.09,157.72,42.23Zm.46,4.26v-.35a.17.17,0,0,1,.15.06Zm.28-6.11a0,0,0,0,0,0,0c.05-.09.05-.19.1-.29A.83.83,0,0,1,158.46,40.38Zm.52-.48.2-.19v-.3c.2-.14.2-.34.25-.53a.67.67,0,0,0-.25.53A.56.56,0,0,0,159,39.9Zm.2,2v-.25s.1.06.15.06A.63.63,0,0,0,159.18,41.91Zm.45-4a1.7,1.7,0,0,0,.25-.39l.3-.43v-.35A2.53,2.53,0,0,0,159.63,37.91Zm-.45,3.81v0Zm1-6.14a.85.85,0,0,0-.3.68,2.07,2.07,0,0,1,.3-.34Zm1,3.37V38.7a.17.17,0,0,1,.15.06A.52.52,0,0,0,161.18,39Zm0-.19v0ZM161,35l.3-.43c.05-.05-.11-.15-.11-.15v.15h1v-.19l-1,0v0a1.94,1.94,0,0,0,.36-.54c.05,0,.1,0-.36-.08v-.35c.51.14.41.29.36.43A2.53,2.53,0,0,0,161,35Zm1.19.5h.1c-.05,0-.05.1-.1.2Zm0-.24h.1c0,.1-.05.15-.1.24Zm.3-3.36a.54.54,0,0,0,.25-.39A.42.42,0,0,0,162.48,31.85Zm.1,3.17c0-.05,0-.15-.4-.25V35a7.17,7.17,0,0,0,1,.19V35Zm1.6-2.62c-.05,0-.1,0-.15,0h.15Zm1.68-7c0-.05,0-.15.1-.19A.32.32,0,0,0,165.86,25.41ZM167.18,27v-.2h.15A.63.63,0,0,0,167.18,27Zm.1-.39a.26.26,0,0,0-.1.2v-.2Zm-.1-.24h.1a.35.35,0,0,0-.1.19Zm0,0v-.2h.1C167.23,26.2,167.23,26.25,167.18,26.35Zm2-3.29v-.2h.1C169.23,22.91,169.23,23,169.18,23.06Zm-.29-1.18a.61.61,0,0,0,.2-.34A.35.35,0,0,0,168.89,21.88Zm1.29-1h-.05l.05-.05Zm-.05.2.05,0v0Zm.05-1.62a.82.82,0,0,0-.3.48C170.08,19.85,170.13,19.7,170.18,19.46Zm0,1.57v-.15h.1C170.23,20.93,170.18,21,170.18,21Zm.55-2.59c0,.15-.15.24-.2.39C170.68,18.74,170.68,18.59,170.73,18.44Zm.3-.63c-.1.15-.2.24-.2.39A.38.38,0,0,0,171,17.81Z"></path><path class="cls-1" d="M190.32,5.24a11.63,11.63,0,0,1-.64,1.58c-.24.57-.54,1.14-.83,1.72L188.11,10c-.14.38-.34.71-.53,1.1l-.44.86c-.59,1.09-1.18,2.14-1.67,3.24,0,.1-.05.14-.1.24s0,.14-.09.19-.1.14-.1.24v-.27a12.05,12.05,0,0,1-.25,1.5.63.63,0,0,1-.15.19,2,2,0,0,0-.4.87c0,.05,0,.15-.09.2s-.2.19-.3.33c-.25.49-.81,1.55-.81,1.55v.15a1.67,1.67,0,0,1-.14.19,1.89,1.89,0,0,0-.44.87l-.1.1c-.25.53-.55,1.11-.85,1.69a.38.38,0,0,0-.1.2l-.15.19a1.22,1.22,0,0,0-.29.68,9,9,0,0,0-1.2,2.17l-.09.25a.32.32,0,0,0-.1.19l-.15.19h.05l-.15.25c-.1.14-.25.33-.35.48L177.48,31a7,7,0,0,0-.5,1.07s0,.15-.09.19-.15.29-.2.44l-.15.19c0,.15-.15.29-.2.44s-.05.14-.1.19,0,0,.1.06h-1.16v0L176,34h0c0,.1-.1.14-.1.19a.24.24,0,0,0,.1.06h.14V34a5.64,5.64,0,0,0-.56,1.2h0a1.09,1.09,0,0,1-.15.25.38.38,0,0,1-.11.19l-.1.25a.38.38,0,0,0-.1.2,2,2,0,0,0-.26.35c-.35.85-.71,1.64-1.12,2.44-.05.1-.05.25-.1.35s0,.15-.1.25h.1a.32.32,0,0,1-.1.19,2.12,2.12,0,0,0-.61,1,.21.21,0,0,0,0,.25.38.38,0,0,0,.1-.25c0,.1,0,.2,0,.31h-.05s-.11,0-.16.1l-.15.4c0,.1-.1.15-.15.25l0-.05a.15.15,0,0,1,.1.05h-.1a3.31,3.31,0,0,1-.26.5l-.1.25a1.75,1.75,0,0,0-.36.84,3.63,3.63,0,0,0-.51,1.41c-.2.14-.2.29-.25.54,0,0,.1.06.15.06h-.15v-.21s-.5,1-.7,1.51a.3.3,0,0,0,0,.35l-.1.15a.56.56,0,0,0-.2.43,6.83,6.83,0,0,0-.55,1.71c0,.1,0,.25-.1.34a1.65,1.65,0,0,1-.35.44v-.33a1.17,1.17,0,0,0-.1.33,1,1,0,0,0-.2.38,18.3,18.3,0,0,0-.53,2.22l-.15,1.12a4.44,4.44,0,0,0,0,1.41.56.56,0,0,0,.2.45.6.6,0,0,0,.29,0c.24-.18.54-.32.78-.5.54-.42,1.08-.88,1.62-1.35.93-.83,1.86-1.67,2.79-2.56.73-.6,1.42-1.3,2.1-2s1.13-1.07,1.71-1.58l2.65-2.28c.78-.65,1.56-1.29,2.34-1.89a.54.54,0,0,1,.2-.14.57.57,0,0,1,.88,0c.15.15.1.34-.1.48s-.68.6-1.07.88c-1.91,1.67-3.77,3.4-5.58,5.17l-1.47,1.45c-.59.56-1.12,1.12-1.71,1.63-1.08.93-2.11,1.91-3.28,2.79-.25.18-.54.37-.83.55a5.17,5.17,0,0,1-.79.31,2,2,0,0,1-2.2-1.41,5.6,5.6,0,0,1,0-2,18.91,18.91,0,0,1,.69-3.73l.88-3c.05-.29.15-.53.19-.77.2-.43.3-.87.49-1.3a9.12,9.12,0,0,0,.44-1.2c.3-.81.64-1.63.93-2.44.25-.58.44-1.15.74-1.73.24-.42.39-1,.63-1.43.59-1.29,1.23-2.58,1.86-3.87.49-1,1-2,1.57-3,.24-.48.44-1,.68-1.44l1.13-2c.29-.57.59-1.14.88-1.72s.78-1.42,1.13-2.14L181,19.8c.64-1.09,1.18-2.24,1.81-3.38.29-.57.64-1.1.93-1.67l.59-1.05c.44-.95,1-1.81,1.47-2.71,1-1.76,2.1-3.47,3.23-5.18.09-.09.14-.23.24-.33.29-.37.59-.7.83-1,.15,0,.2,0,.25.15A1.38,1.38,0,0,1,190.32,5.24Zm-9.23,17.42c-.2.1-.25.29-.35.44-.49,1-1,1.93-1.54,2.85-.79,1.5-1.58,2.95-2.33,4.4-.84,1.7-1.74,3.39-2.58,5.14-.75,1.5-1.44,3-2.14,4.56-.79,1.79-1.54,3.64-2.18,5.54-.55,1.52-1.05,3-1.49,4.59l-.1.54a2,2,0,0,0-.2.74c-.05,0-.1.14,0,.29v-.29a.85.85,0,0,0,.2-.74,2.17,2.17,0,0,0,.3-.73c.59-1.9,1.19-3.76,1.93-5.61.9-2.38,1.94-4.76,3-7.09.65-1.31,1.24-2.62,1.89-3.88l1.94-3.77,3.42-6.54A1.58,1.58,0,0,0,181.09,22.66ZM170,43.94c.05-.09.2-.14.1-.29C170.08,43.75,170.08,43.85,170,43.94Zm.45-1.16a.92.92,0,0,0,.25-.49C170.63,42.44,170.58,42.63,170.48,42.78Zm-.3,4.25v-.35a.24.24,0,0,1,.15.06Zm1-6.1a0,0,0,0,0,.05,0c0-.1,0-.2.1-.29A1.25,1.25,0,0,1,171.22,40.93Zm-.24-.49.2-.19V40c.2-.14.2-.34.25-.54a.7.7,0,0,0-.25.54A.54.54,0,0,0,171,40.44Zm1.2,2v-.24s.1,0,.15,0A.79.79,0,0,0,172.18,42.45Zm.45-4a1.66,1.66,0,0,0,.25-.38l.3-.44v-.34A2.45,2.45,0,0,0,172.63,38.45Zm-.45,3.81v0Zm1-6.14a.85.85,0,0,0-.3.68,2,2,0,0,1,.3-.33Zm0,3.37v-.25a.24.24,0,0,1,.15.06A.63.63,0,0,0,173.18,39.49Zm0-.19v0Zm.58-3.81.29-.43a4.52,4.52,0,0,0-.87-.14v.15h1v-.2l-1,.05v-.05s1.07-.35,1.12-.54.1,0-.12-.09v-.35c.27.15.17.29.12.44A2.44,2.44,0,0,0,173.76,35.49Zm1.42.5h.1c-.05,0-.05.09-.1.19Zm0-.24h.1c0,.09-.05.14-.1.24Zm.07-3.36a.51.51,0,0,0,.24-.38A.41.41,0,0,0,175.25,32.39Zm.1,3.17c0-.05,0-.15-.17-.24v.24a1.88,1.88,0,0,0,1,.2v-.2ZM177.18,33c-.05,0-.1-.06-.15-.06h.15Zm1.44-7s0-.14.1-.19A.35.35,0,0,0,178.62,26Zm.56,1.57v-.19h.15A.79.79,0,0,0,179.18,27.52Zm.1-.38a.24.24,0,0,0-.1.19v-.2Zm.9-.25h.1a.32.32,0,0,0-.1.19Zm0,0v-.2h.1C180.23,26.75,180.23,26.8,180.18,26.9Zm1-3.3v-.19h.1C181.23,23.46,181.23,23.56,181.18,23.6Zm.47-1.18a.58.58,0,0,0,.2-.34A.36.36,0,0,0,181.65,22.42Zm.53-1h-.05l.05-.05Zm-.05.2.05-.05v.05Zm.81-1.62a.89.89,0,0,0-.29.48C182.85,20.39,182.89,20.25,182.94,20Zm-.76,1.57v-.15h.1C182.23,21.48,182.18,21.52,182.18,21.57ZM183.49,19c-.05.14-.15.24-.2.38C183.44,19.28,183.44,19.13,183.49,19Zm.3-.63c-.1.14-.2.23-.2.38A.38.38,0,0,0,183.79,18.36Z"></path><path class="cls-1" d="M199,44.88l-.89.81a5,5,0,0,1-1,.23v.15a.11.11,0,0,1-.1.09l-.09.13a.1.1,0,0,0-.09.09.11.11,0,0,0-.1.09l-.28.13c-.66.68-1.37,1.3-2.07,2a.76.76,0,0,0-.15.23s-.09,0-.09.09-.09,0-.09.09,0-.05.09-.09,0,0,.09-.09.29-.23.43-.31a1.09,1.09,0,0,1,.52-.45.65.65,0,0,1-.33.36c-.76.81-1.56,1.62-2.36,2.43-.47.55-.94,1-1.46,1.54a20.78,20.78,0,0,1-2.31,2.2,3,3,0,0,1-.66.44,1.09,1.09,0,0,1-1.22-.19l-.24-.15a1.19,1.19,0,0,1-.42-1,3.93,3.93,0,0,1,.14-1.07,33,33,0,0,1,1.41-4.21,15.26,15.26,0,0,1,.52-1.48.82.82,0,0,0,.09-.33c.05-.09,0-.14,0-.19-.19,0-.19-.2-.19-.38v-.84l-1-.16v0l1,.09v-.1s-.37,0-.37.1h-.05a1,1,0,0,1-.2.28.11.11,0,0,1-.1.1l-.1.14h.1c-.05,0-.05,0-.1.09a13.41,13.41,0,0,1-4.07,3.29,4.07,4.07,0,0,1-1.14.4,1.66,1.66,0,0,1-.85-.09,2.15,2.15,0,0,1-1.19-1.23.7.7,0,0,1-.05-.55,3.66,3.66,0,0,1,.3-1.13,10,10,0,0,1,.6-1,8.53,8.53,0,0,1,2.08-2,4.5,4.5,0,0,1,2.88-.77,3,3,0,0,1,.9.24c.3.11.34.11.59-.17a8.66,8.66,0,0,1,1.77-1.43v-.13c.74-.76,1.38-1.65,2.17-2.35a2.33,2.33,0,0,1,.51-.48.43.43,0,0,1,.6,0,1.67,1.67,0,0,1,.32.24.85.85,0,0,1,.37,1.07,10.54,10.54,0,0,1-.74,1.81,1.57,1.57,0,0,0-.19.36l.14-.18a.53.53,0,0,1-.18.41v.09a3.66,3.66,0,0,1-.23.63l0,.18a11,11,0,0,0-.32,1.48,1.13,1.13,0,0,0-.32.71.21.21,0,0,0-.09.18v.1a2.89,2.89,0,0,0-.69.77,1,1,0,0,0-.2.54c-.1.09-.1.19-.14.34h0a1.12,1.12,0,0,0-.24.53c0,.05,0,.15-.1.2a.64.64,0,0,0-.25.38l-.75,2a1.54,1.54,0,0,0-.2.68,5.79,5.79,0,0,0-.64,2,1.55,1.55,0,0,0-.2.83h-.05c.25.2.25.2.35.11l.45-.33c.79-.8,1.63-1.66,2.48-2.46s1.49-1.42,2.23-2.09,1.64-1.56,2.49-2.32,1.54-1.46,2.38-2.12a.69.69,0,0,0,.2-.14c.3-.23.35-.23.65,0S199.23,44.7,199,44.88Zm-13.75.56.94-1.15a4.88,4.88,0,0,0,.4-.53s0-.15-.1-.2h-.25a2.74,2.74,0,0,0-1.24.24,6.63,6.63,0,0,0-1.29.74,1,1,0,0,1-.5.23c.1-.2.35-.29.45-.48a.37.37,0,0,0,.3-.23.69.69,0,0,0-.35.18,3.65,3.65,0,0,0-1.39,1.37.6.6,0,0,0-.3.39.5.5,0,0,0,.3-.39,1.26,1.26,0,0,0,.4-.33,1.82,1.82,0,0,1,.49-.42.86.86,0,0,1-.25.48,4.24,4.24,0,0,0-1,1.25,3.84,3.84,0,0,0-.5,1.46c0,.2.1.3.3.26a4.83,4.83,0,0,0,.95-.5A17.89,17.89,0,0,0,185.28,45.44Zm-3.58.83A.39.39,0,0,0,182,46C181.85,46.08,181.8,46.18,181.7,46.27Zm.15-1.23h.33V45h-1v.1l1-.09c0-.05,0-.1.1-.1h-.07V45h-1v-.1a3.59,3.59,0,0,1,.77.1A.1.1,0,0,0,181.85,45Zm.23-.24h.1v-.05C182.13,44.76,182.13,44.81,182.08,44.8Zm0-.09h.1v.1a.1.1,0,0,0,.1-.09h-.1v-.1A.11.11,0,0,1,182.08,44.71Zm0-.09h.05v-.1S182.13,44.57,182.13,44.62Zm.05.1.1-.1a1.43,1.43,0,0,0,.64-.71c.05,0,.05,0,.1-.09a.29.29,0,0,0,.2-.09.18.18,0,0,0-.2.09l-.15.09a1.18,1.18,0,0,0-.69.61s0,0,.1.1h-.1Zm2,2v0l.9,0H185c0-.05.2-.14.2-.14v.09a.06.06,0,0,1,0-.09s.1,0,.1-.1h-.1s.1,0,.1-.09,0,0,.05.1,0,0,0-.1h-.1a6.18,6.18,0,0,1,.9-.1v.1l-.65-.09a.84.84,0,0,0,.39-.53h-.1c.05,0-.64-.1-.64-.1v.1a6,6,0,0,0,.89-.09l.1-.1h-.1s.11-.15.11-.15v.1l.09-.09a.39.39,0,0,0,.2-.29l.1-.09h.61v.1h-.81s.1-.1.1-.15l.71-.09V45s-.51,0-.46-.1h.46v-.2c-.51,0-.51-.05-.46-.09h.46v.2s-.16-.19-.16-.29h-.1a.88.88,0,0,1,.26-.1v0s-.06,0,0,0h0v-.25a.57.57,0,0,0-.46.44c-.05,0-.1,0-.15.09a1.27,1.27,0,0,0-.35.38.11.11,0,0,1-.1.1,6,6,0,0,0-.64.71,10.81,10.81,0,0,0-1,1.09c.15,0,.3-.13.45-.18A3.36,3.36,0,0,0,184.18,46.71Zm.75,1a.25.25,0,0,0-.25.14C184.78,47.84,184.88,47.74,184.93,47.7Zm3-3a.09.09,0,0,0,0-.15s-.1,0-.1,0l-.2.19a27.11,27.11,0,0,1-2,2.2l-.25.28c0,.05,0,.05-.1.1a.32.32,0,0,0-.2.23.47.47,0,0,0,.25-.18l.1-.1a1.43,1.43,0,0,0,.44-.32,28.18,28.18,0,0,0,2-2.2S187.91,44.71,187.91,44.66Zm-2.73,1.81v.1h-.1S185.13,46.52,185.18,46.47Zm1-.9v.1h-.1A.1.1,0,0,1,186.18,45.57Zm0-.34v.2h-.1a.17.17,0,0,1,0-.14Zm.14-.1h.05s-.05,0-.1.09S186.27,45.18,186.32,45.13Zm.84-1.05h.1a.11.11,0,0,1,.1-.1C187.21,43.89,187.16,43.88,187.16,44.08Zm0,1.55h.1a.17.17,0,0,1-.1,0Zm1.72-2.32a5.78,5.78,0,0,0,.7-.91h0l-.15.14s0,0,.1,0a.48.48,0,0,1-.25.19l-.1.14a.21.21,0,0,0,0,.1v0L189,43c0,.1,0,.2-.1.24l-.2.19s0,0,0,0a1,1,0,0,1-.43.34v.09c.23.06.28,0,.28,0A1.84,1.84,0,0,0,188.9,43.31Zm-.44,7.16a.82.82,0,0,0,.19-.49A.92.92,0,0,0,188.46,50.47Zm1.39-8L188.7,44a1,1,0,0,0,0,.84c0,.2,0,.4.1.6s-.05.14.1.15.1-.1.1-.15C189.1,45.15,190.15,42.67,189.85,42.46Zm-.67,6.06v0S189.23,48.53,189.18,48.52Zm.37-6.12c0,.05-.05.05-.05.1S189.5,42.45,189.55,42.4Zm.15-1.48c.1,0,.25-.08.3-.23l.1-.14a.33.33,0,0,0,.29-.19s.05-.1.79-.14v.09c-.64,0-.64-.09-.59-.14a.42.42,0,0,0,.3-.28l.1-.15a.17.17,0,0,0-.1,0,.18.18,0,0,1,0-.15h.34v-.1c-.29,0-.29.05-.34.1a.92.92,0,0,0-.45.42.77.77,0,0,0-.34.43c-.05,0-.1.1-.1.15Zm.59,5a1,1,0,0,0-.24.48A1,1,0,0,0,190.29,46Zm-.11-5.83c0,.05,0,.05.1.05s-.05,0-.1,0Zm0,6.18v0h0A0,0,0,0,0,190.18,46.3Zm.66-1.62a.37.37,0,0,0-.1.3C190.79,44.88,190.79,44.78,190.84,44.68Zm.1-5.19a.42.42,0,0,0,.3-.28.17.17,0,0,0,.1-.05l0,0c0-.06,0-.06-.1,0s0,0,0,.1A1.64,1.64,0,0,0,190.94,39.49Zm.24,4.27c0,.05-.05.05-.1.09s0,.1,0,.11l.05-.05Zm1.35,6.29a8.36,8.36,0,0,0-1.19,1.19c-.1,0-.1.14-.15.24a10.37,10.37,0,0,0,1.24-1.24A.22.22,0,0,0,192.53,50.05Zm-.2,1.08c-.05,0-.05,0-.1.1a2.94,2.94,0,0,0-.94,1,3.68,3.68,0,0,0,.94-1C192.28,51.18,192.33,51.18,192.33,51.13ZM191.59,43a.62.62,0,0,0-.2.49A.83.83,0,0,0,191.59,43Zm.84,8-.1.09A.1.1,0,0,0,192.43,51Zm.1-.1c-.05,0-.05,0-.05.1S192.53,50.94,192.53,50.89ZM194.42,49c-.1,0-.1.05-.15.09l-.1.1s0,.05-.1.09-.1,0-.1.1l-.1.09a7.27,7.27,0,0,0-1.24,1.24.16.16,0,0,0,0,.14,5.26,5.26,0,0,0,1.29-1.33s.1,0,.1-.09l.1-.1.15-.14.1-.09C194.37,49.14,194.37,49.09,194.42,49Zm-1.3.44s0,0,0,0Zm.2-.19a1.28,1.28,0,0,0,.75-.71A2.54,2.54,0,0,0,193.32,49.29Zm1.94-1.85a5.43,5.43,0,0,0-.94.91A1.89,1.89,0,0,0,195.26,47.44Zm.82.47s0-.1.1-.14v0C196.13,47.81,196.13,47.86,196.08,47.91Zm-.27-.14a6.67,6.67,0,0,1,.94-.9A1.88,1.88,0,0,1,195.81,47.77ZM197,45.94a2.69,2.69,0,0,0-1,.84,1,1,0,0,0,.49-.27Zm-.1.83c-.05,0-.1,0-.1.1A.11.11,0,0,1,196.9,46.77Zm.45-.52h.1a1,1,0,0,1-.55.47Zm-.17,0v-.1h.1A.09.09,0,0,0,197.18,46.25Zm0-.14v0h.1C197.23,46.06,197.23,46.11,197.18,46.11Zm0-.2h.1c-.05,0-.05.1-.1.09Zm1.26-1.35a2.68,2.68,0,0,0-.55.47C198.24,44.9,198.24,44.9,198.44,44.56Z"></path></g></g></svg>